<svg width="120" height="24" viewBox="0 0 120 24" fill="none" xmlns="http://www.w3.org/2000/svg">
<path d="M5.57904 17.4556C5.71429 17.4556 5.82418 17.5655 5.82418 17.7007V19.3998V21.3778C5.82418 22.426 4.97041 23.2797 3.92223 23.2797H0.245139C0.10989 23.2797 0 23.1699 0 23.0346V21.3355C0 20.262 0.870668 19.3913 1.94421 19.3913H3.40659C4.40406 19.3913 5.22401 18.639 5.3339 17.6669C5.3508 17.5486 5.45224 17.4556 5.57904 17.4556Z" fill="#D19E5C"/>
<path d="M8.73202 0.253593C8.73202 0.118343 8.84191 0 8.98562 0H14.0744C14.9366 0 15.6974 0.566357 15.9341 1.39476L21.8597 21.7075C22.0203 22.2739 22.5021 22.6796 23.0685 22.7557C23.1953 22.7726 23.2798 22.8825 23.2798 23.0008C23.2798 23.1361 23.1699 23.2544 23.0262 23.2544L17.9459 23.2713C17.0837 23.2713 16.3229 22.705 16.0778 21.8766L13.5756 13.2967C13.4573 12.891 13.0769 12.6036 12.6543 12.6036H12.1217C11.8512 12.6036 11.6399 12.8233 11.6399 13.0854V13.5587C11.6399 14.6323 10.7692 15.503 9.69568 15.503C8.63059 15.503 7.75146 14.6323 7.75146 13.5672C7.75146 12.4937 8.62213 11.6314 9.69568 11.6314H13.0854L10.1521 1.55537C9.99153 0.989011 9.50971 0.583263 8.94335 0.498732C8.81655 0.481826 8.73202 0.380389 8.73202 0.253593Z" fill="#D19E5C"/>
<path d="M39.5263 23.2797C39.6531 23.2797 39.7545 23.1782 39.7545 23.0514V13.9136C39.6785 11.5552 38.0639 9.58565 35.883 8.96857C35.0546 8.71498 33.9388 8.72343 33.9388 8.72343C32.0369 8.70652 30.5998 9.44194 30.0842 9.74626C29.9743 9.81388 29.8391 9.78007 29.7714 9.67018C29.5686 9.34896 29.0698 8.75724 28.1146 8.74034H25.1222C24.987 8.74034 24.8771 8.85023 24.8687 8.98548C24.8687 9.12073 24.9785 9.23907 25.1138 9.23907C25.7055 9.23907 26.1789 9.71244 26.1789 10.3042V22.5189C26.1789 22.9415 26.5255 23.2881 26.9481 23.2881H29.8137C29.9405 23.2881 30.0504 23.1867 30.0504 23.0514V12.9922C30.1096 11.4284 31.386 10.1858 32.9583 10.1858C34.539 10.1858 35.8238 11.4369 35.8661 13.0091V22.5189C35.8661 22.9415 36.2127 23.2881 36.6353 23.2881H39.5263V23.2797Z" fill="#D19E5C"/>
<path d="M45.9089 8.74023H44.4634H42.9165C42.7813 8.74023 42.6714 8.85012 42.6714 8.98537C42.6714 9.12062 42.7813 9.23051 42.9165 9.23051C43.5082 9.23051 43.9816 9.70389 43.9816 10.2956V22.5019C43.9816 22.9245 44.3282 23.2711 44.7508 23.2711H47.6164C47.7517 23.2711 47.8531 23.1612 47.8531 23.0344V10.6844C47.8531 9.6109 46.9825 8.74023 45.9089 8.74023Z" fill="#D19E5C"/>
<path d="M45.5707 7.0667C46.6305 7.0667 47.4896 6.2076 47.4896 5.14785C47.4896 4.0881 46.6305 3.229 45.5707 3.229C44.5109 3.229 43.6519 4.0881 43.6519 5.14785C43.6519 6.2076 44.5109 7.0667 45.5707 7.0667Z" fill="#D19E5C"/>
<path d="M95.2663 23.0515C95.2663 23.1783 95.1649 23.2882 95.0296 23.2882H92.1556C91.7329 23.2882 91.3864 22.9416 91.3864 22.5189V13.0092C91.3356 11.4454 90.0508 10.1859 88.4701 10.1859C86.8978 10.1859 85.6129 11.4369 85.5537 12.9923V23.0515C85.5537 23.1867 85.4439 23.2882 85.3171 23.2882H82.4515C82.0288 23.2882 81.6822 22.9416 81.6822 22.5189V10.2958C81.6822 9.70406 81.2089 9.23069 80.6172 9.23069C80.4819 9.23069 80.3636 9.1208 80.372 8.97709C80.372 8.84184 80.4904 8.73195 80.6256 8.73195H83.618C84.5732 8.74041 85.0719 9.33212 85.2748 9.65334C85.3424 9.76323 85.4777 9.78859 85.5876 9.72942C86.1032 9.42511 87.5318 8.68969 89.4422 8.7066C89.4422 8.7066 90.558 8.69814 91.3864 8.95174C92.2993 9.21378 93.1192 9.70406 93.7617 10.3719C93.9307 10.5494 94.2182 10.5578 94.4041 10.3972C94.6577 10.1774 94.9536 9.9492 95.2832 9.72942C95.782 9.39975 97.2274 8.68969 99.1378 8.7066C99.1378 8.7066 100.254 8.69814 101.082 8.95174C103.263 9.56881 104.877 11.5384 104.954 13.8968V23.0346C104.954 23.1614 104.852 23.2628 104.725 23.2628H101.851C101.429 23.2628 101.082 22.9162 101.082 22.4936V12.9839C101.031 11.42 99.7465 10.1605 98.1742 10.1605C96.6019 10.1605 95.317 11.4116 95.2663 12.967V23.0515Z" fill="#D19E5C"/>
<path d="M66.1536 19.1631C66.1536 21.437 68.326 23.2798 71.0141 23.2798C72.2144 23.2798 73.3133 22.9163 74.1586 22.3161C74.2601 22.2485 74.3953 22.3161 74.4038 22.4429V22.519C74.4038 22.9417 74.7504 23.2883 75.173 23.2883H78.0386C78.1739 23.2883 78.2753 23.1784 78.2753 23.0516V13.9307C78.1992 11.5723 76.5847 9.60271 74.4038 8.98563C73.5754 8.73204 72.4596 8.74049 72.4596 8.74049C71.031 8.72359 69.8645 9.13779 69.1544 9.47591C69.146 9.47591 69.146 9.48436 69.1375 9.48436C68.9515 9.5858 68.774 9.69569 68.605 9.81403C68.4359 9.93238 68.2753 10.0761 68.1316 10.2113C67.5145 10.8115 67.1426 11.5723 67.1341 12.4007V12.7642C67.1341 12.9586 67.2947 13.1276 67.4892 13.1276H68.5712C69.1037 13.1276 69.5348 12.6965 69.5348 12.164V12.1386C69.5348 11.082 70.3886 10.2113 71.4452 10.2029C71.4537 10.2029 71.4706 10.2029 71.479 10.2029C73.0597 10.2029 74.3446 11.4539 74.3953 13.0262V14.8014C74.3953 14.9451 74.2854 15.0634 74.1417 15.0634H71.0141C66.0352 15.2578 66.1536 19.1631 66.1536 19.1631ZM73.829 21.344C73.3556 21.6568 72.8146 21.8343 72.2482 21.8343C72.2398 21.8343 72.2229 21.8343 72.2144 21.8343C71.479 21.8259 70.7859 21.4962 70.304 20.9383C69.6954 20.2367 69.4503 19.3322 69.5771 18.47C69.763 17.2105 70.8535 16.2722 72.1299 16.2722H74.1417C74.2854 16.2722 74.3953 16.3821 74.3953 16.5173V20.2959C74.4038 20.7185 74.1925 21.1158 73.829 21.344C73.8374 21.344 73.8374 21.344 73.829 21.344Z" fill="#D19E5C"/>
<path d="M107.878 19.1631C107.878 21.437 110.051 23.2798 112.739 23.2798C113.939 23.2798 115.038 22.9163 115.883 22.3161C115.985 22.2485 116.12 22.3161 116.128 22.4429V22.519C116.128 22.9417 116.475 23.2883 116.898 23.2883H119.763C119.899 23.2883 120 23.1784 120 23.0516V13.9307C119.924 11.5723 118.309 9.60271 116.128 8.98563C115.3 8.73204 114.184 8.74049 114.184 8.74049C112.756 8.72359 111.589 9.13779 110.879 9.47591C110.871 9.47591 110.871 9.48436 110.862 9.48436C110.676 9.5858 110.499 9.69569 110.33 9.81403C110.161 9.93238 110 10.0761 109.856 10.2113C109.239 10.8115 108.867 11.5723 108.859 12.4007V12.7642C108.859 12.9586 109.019 13.1276 109.214 13.1276H110.296C110.828 13.1276 111.259 12.6965 111.259 12.164V12.1386C111.259 11.082 112.113 10.2113 113.17 10.2029C113.178 10.2029 113.195 10.2029 113.204 10.2029C114.784 10.2029 116.069 11.4539 116.12 13.0262V14.8014C116.12 14.9451 116.01 15.0634 115.866 15.0634H112.739C107.76 15.2578 107.878 19.1631 107.878 19.1631ZM115.562 21.344C115.089 21.6568 114.548 21.8343 113.981 21.8343C113.973 21.8343 113.956 21.8343 113.948 21.8343C113.212 21.8259 112.519 21.4962 112.037 20.9383C111.428 20.2367 111.183 19.3322 111.31 18.47C111.496 17.2105 112.587 16.2722 113.863 16.2722H115.875C116.019 16.2722 116.128 16.3821 116.128 16.5173V20.2959C116.128 20.7185 115.917 21.1158 115.562 21.344Z" fill="#D19E5C"/>
<path d="M55.9174 22.9249C53.0772 21.9105 51.04 19.2224 51.04 16.0018C51.04 12.7558 53.111 10.0255 55.9851 9.01955C56.6444 8.79977 57.3037 8.70679 58.0307 8.70679C59.3578 8.70679 60.6004 9.09563 61.6571 9.77188C62.5615 10.3551 63.111 11.3611 63.111 12.4431V12.7135C63.111 12.9164 62.9504 13.077 62.7475 13.077H62.0882C61.581 13.077 61.1583 12.6628 61.1583 12.1472C61.0992 10.3551 58.8845 10.5073 58.8845 10.5073C57.3629 10.5496 56.0358 11.5386 55.554 12.9756C55.554 12.9756 55.0891 14.252 55.0891 15.9933C55.0891 15.9933 55.0637 17.4473 55.5032 18.842C55.5032 18.842 56.2387 21.4202 59.0282 21.4456C60.592 21.4456 61.9529 20.8877 62.5954 20.0762C62.6799 19.9409 62.8405 19.848 63.018 19.848C63.2801 19.848 63.4998 20.0677 63.4998 20.3298C63.4998 20.4481 63.4576 20.5665 63.3815 20.651C62.1051 22.2402 60.1947 23.2545 58.0561 23.2545C58.0561 23.2799 57.0163 23.3053 55.9174 22.9249Z" fill="#D19E5C"/>
</svg>
