<svg width="82" height="97" viewBox="0 0 82 97" fill="none" xmlns="http://www.w3.org/2000/svg">
<path opacity="0.6" d="M70.6479 87.5057C69.6971 87.5057 68.9292 86.7743 68.8195 85.8236C68.7464 84.7997 69.4777 83.9221 70.465 83.8489L74.7434 83.4833C74.78 83.4833 74.8531 83.4833 74.8897 83.4833C76.6449 83.4833 78.1442 81.1795 78.1442 78.4735V8.66646C78.1442 5.96048 76.6449 3.65674 74.8897 3.65674H16.711C14.9558 3.65674 13.4565 5.96048 13.4565 8.66646V11.2262C13.4565 12.2501 12.6521 13.0545 11.6282 13.0545C10.6043 13.0545 9.7998 12.2501 9.7998 11.2262V8.66646C9.7998 3.87614 12.908 0 16.711 0H74.9628C78.7658 0 81.8741 3.87614 81.8741 8.66646V78.437C81.8741 83.1907 78.8024 87.0303 75.036 87.1034L70.8307 87.4691C70.7576 87.5057 70.721 87.5057 70.6479 87.5057Z" fill="#D19E5C"/>
<path opacity="0.6" d="M14.9561 82.0203C14.9561 83.0441 15.7605 83.8486 16.7844 83.8486H34.8853C35.9091 83.8486 36.7136 83.0441 36.7136 82.0203C36.7136 80.9964 35.9091 80.1919 34.8853 80.1919H16.7844C15.7971 80.1919 14.9561 80.9964 14.9561 82.0203Z" fill="#D19E5C"/>
<path d="M65.163 96.5014H6.91123C3.10823 96.5014 0 92.6252 0 87.8349V18.0644C0 13.2741 3.10823 9.39795 6.91123 9.39795H65.163C68.966 9.39795 72.0743 13.2741 72.0743 18.0644V87.8349C72.0743 92.6252 68.966 96.5014 65.163 96.5014ZM6.91123 13.0547C5.156 13.0547 3.65674 15.3584 3.65674 18.0644V87.8349C3.65674 90.5409 5.156 92.8447 6.91123 92.8447H65.163C66.9183 92.8447 68.4175 90.5409 68.4175 87.8349V18.0644C68.4175 15.3584 66.9183 13.0547 65.163 13.0547H6.91123Z" fill="#7F7F7F"/>
<path d="M36.0554 62.5302C24.5732 62.5302 15.2485 53.2055 15.2485 41.7233C15.2485 30.2412 24.5732 20.9165 36.0554 20.9165C47.5375 20.9165 56.8622 30.2412 56.8622 41.7233C56.8622 53.1689 47.5375 62.5302 36.0554 62.5302ZM36.0554 24.5367C26.5844 24.5367 18.9053 32.2524 18.9053 41.6868C18.9053 51.1577 26.621 58.8368 36.0554 58.8368C45.5263 58.8368 53.2054 51.1211 53.2054 41.6868C53.2054 32.2524 45.4897 24.5367 36.0554 24.5367Z" fill="#D19E5C"/>
<path d="M36.0556 43.6249C31.8138 43.6249 28.3765 40.1876 28.3765 35.9457C28.3765 31.7039 31.8138 28.2666 36.0556 28.2666C40.2974 28.2666 43.7348 31.7039 43.7348 35.9457C43.7348 40.1876 40.2974 43.6249 36.0556 43.6249ZM36.0556 31.9599C33.8616 31.9599 32.0332 33.7517 32.0332 35.9823C32.0332 38.1764 33.825 40.0047 36.0556 40.0047C38.2862 40.0047 40.078 38.2129 40.078 35.9823C40.078 33.7517 38.2497 31.9599 36.0556 31.9599Z" fill="#D19E5C"/>
<path d="M44.6123 52.1817H27.4988C26.4749 52.1817 25.6704 51.3772 25.6704 50.3533C25.6704 44.7951 30.5339 39.9316 36.0555 39.9316C41.5772 39.9316 46.4407 44.7951 46.4407 50.3533C46.4407 51.3407 45.6362 52.1817 44.6123 52.1817ZM29.6197 48.525H42.528C41.6503 45.7824 38.9809 43.5884 36.0555 43.5884C33.1302 43.5884 30.4607 45.7824 29.6197 48.525Z" fill="#D19E5C"/>
</svg>
