<svg width="106" height="85" viewBox="0 0 106 85" fill="none" xmlns="http://www.w3.org/2000/svg">
<path opacity="0.6" d="M35.4336 62.676C35.4336 63.6999 36.2381 64.5044 37.262 64.5044H48.8904C49.9143 64.5044 50.7187 63.6999 50.7187 62.676C50.7187 61.6521 49.9143 60.8477 48.8904 60.8477H37.262C36.2746 60.8477 35.4336 61.6521 35.4336 62.676Z" fill="#D19E5C"/>
<path opacity="0.6" d="M15.6875 27.3523C15.6875 28.3762 16.492 29.1807 17.5159 29.1807H55.1802C56.2041 29.1807 57.0086 28.3762 57.0086 27.3523C57.0086 26.3284 56.2041 25.5239 55.1802 25.5239H17.5159C16.5285 25.5239 15.6875 26.3284 15.6875 27.3523Z" fill="#D19E5C"/>
<path opacity="0.6" d="M15.6875 36.4939C15.6875 37.5178 16.492 38.3223 17.5159 38.3223H40.0048C41.0287 38.3223 41.8332 37.5178 41.8332 36.4939C41.8332 35.47 41.0287 34.6655 40.0048 34.6655H17.5159C16.5285 34.6655 15.6875 35.47 15.6875 36.4939Z" fill="#D19E5C"/>
<path opacity="0.6" d="M15.6875 45.636C15.6875 46.6599 16.492 47.4644 17.5159 47.4644H26.9502C27.9741 47.4644 28.7786 46.6599 28.7786 45.636C28.7786 44.6121 27.9741 43.8076 26.9502 43.8076H17.5159C16.5285 43.8076 15.6875 44.6121 15.6875 45.636Z" fill="#D19E5C"/>
<path d="M102.645 6.32599C100.853 4.53419 98.476 3.54688 95.9162 3.54688C93.3565 3.54688 90.9796 4.53419 89.1879 6.32599L48.1958 47.318C48.1227 47.3911 48.0496 47.4643 48.013 47.574C48.013 47.6105 47.9764 47.6105 47.9764 47.6471C47.9033 47.7202 47.8667 47.8299 47.8302 47.9397C47.8302 47.9762 47.8302 47.9762 47.7936 48.0128C47.757 48.0494 47.757 48.1225 47.757 48.159L44.6488 59.1658C44.2466 60.6651 44.6488 62.2009 45.7093 63.2979C46.5137 64.1024 47.5742 64.5412 48.6712 64.5412C49.0735 64.5412 49.4391 64.5047 49.8414 64.395L60.8481 61.2867C60.8847 61.2867 60.9579 61.2502 60.9944 61.2502C61.031 61.2502 61.031 61.2502 61.0676 61.2136C61.1773 61.177 61.2504 61.1405 61.3601 61.0673C61.3967 61.0673 61.3967 61.0308 61.4332 61.0308C61.5064 60.9576 61.6161 60.9211 61.6892 60.8479L102.645 19.7462C106.338 16.0529 106.338 10.0193 102.645 6.32599ZM48.8175 60.8114C48.5615 60.8845 48.3421 60.7382 48.269 60.6651C48.1958 60.5919 48.0496 60.4091 48.1227 60.1166L50.3899 52.1083L56.8257 58.5442L48.8175 60.8114ZM100.048 17.1865L60.3362 56.8987L52.0354 48.6344L91.7841 8.88571C94.0513 6.61853 97.7812 6.61853 100.048 8.88571C102.316 11.1895 102.316 14.8828 100.048 17.1865Z" fill="#D19E5C"/>
<path d="M65.3459 84.1415H7.82541C3.51047 84.1415 0 80.631 0 76.3161V7.82541C0 3.51047 3.51047 0 7.82541 0H65.3459C69.6608 0 73.1713 3.51047 73.1713 7.82541V15.1755C73.1713 16.1993 72.3668 17.0038 71.3429 17.0038C70.319 17.0038 69.5145 16.1993 69.5145 15.1755V7.82541C69.5145 5.52167 67.6496 3.65674 65.3459 3.65674H7.82541C5.52167 3.65674 3.65674 5.52167 3.65674 7.82541V76.3161C3.65674 78.6198 5.52167 80.4847 7.82541 80.4847H65.3459C67.6496 80.4847 69.5145 78.6198 69.5145 76.3161V58.9466C69.5145 57.9227 70.319 57.1182 71.3429 57.1182C72.3668 57.1182 73.1713 57.9227 73.1713 58.9466V76.3161C73.1713 80.631 69.6608 84.1415 65.3459 84.1415Z" fill="#7F7F7F"/>
</svg>
