<svg width="28" height="21" viewBox="0 0 28 21" fill="none" xmlns="http://www.w3.org/2000/svg">
<path fill-rule="evenodd" clip-rule="evenodd" d="M0 1.52174C0 0.681306 0.681307 0 1.52174 0H26.4783C27.3187 0 28 0.681306 28 1.52174C28 2.36217 27.3187 3.04348 26.4783 3.04348H1.52174C0.681306 3.04348 0 2.36217 0 1.52174ZM0 10.5C0 11.3404 0.681306 12.0217 1.52174 12.0217H26.4783C27.3187 12.0217 28 11.3404 28 10.5C28 9.65956 27.3187 8.97826 26.4783 8.97826H1.52174C0.681306 8.97826 0 9.65956 0 10.5ZM0 19.4782C0 20.3187 0.681306 21 1.52174 21H26.4783C27.3187 21 28 20.3187 28 19.4782C28 18.6378 27.3187 17.9565 26.4783 17.9565H1.52174C0.681307 17.9565 0 18.6378 0 19.4782Z" fill="#D19E5C"/>
</svg>
