<svg width="22" height="22" viewBox="0 0 22 22" fill="none" xmlns="http://www.w3.org/2000/svg">
<path fill-rule="evenodd" clip-rule="evenodd" d="M20.9 3.3C21.5075 2.69249 21.5075 1.70751 20.9 1.1C20.2925 0.492487 19.3075 0.492487 18.7 1.1L11 8.8L3.3 1.1C2.69249 0.492487 1.70751 0.492487 1.1 1.1C0.492487 1.70751 0.492487 2.69249 1.1 3.3L8.8 11L1.1 18.7C0.492487 19.3075 0.492487 20.2925 1.1 20.9C1.70751 21.5075 2.69249 21.5075 3.3 20.9L11 13.2L18.7 20.9C19.3075 21.5075 20.2925 21.5075 20.9 20.9C21.5075 20.2925 21.5075 19.3075 20.9 18.7L13.2 11L20.9 3.3Z" fill="#D19E5C"/>
</svg>
