<svg width="35" height="35" viewBox="0 0 35 35" fill="none" xmlns="http://www.w3.org/2000/svg">
<path d="M17.5 3.14607C22.1699 3.14607 22.7107 3.14607 24.5787 3.24438C26.2992 3.3427 27.2332 3.58848 27.823 3.83427C28.6587 4.12921 29.1994 4.52247 29.8385 5.16152C30.4284 5.7514 30.8216 6.34129 31.1657 7.17697C31.4115 7.81601 31.7065 8.70084 31.7556 10.4213C31.8539 12.2893 31.8539 12.8301 31.8539 17.5C31.8539 22.1699 31.8539 22.7107 31.7556 24.5787C31.6573 26.2992 31.4115 27.2331 31.1657 27.823C30.8708 28.6587 30.4775 29.1994 29.8385 29.8385C29.2486 30.4284 28.6587 30.8216 27.823 31.1657C27.184 31.4115 26.2992 31.7065 24.5787 31.7556C22.7107 31.8539 22.1699 31.8539 17.5 31.8539C12.8301 31.8539 12.2893 31.8539 10.4213 31.7556C8.70084 31.6573 7.76685 31.4115 7.17696 31.1657C6.34129 30.8708 5.80056 30.4775 5.16152 29.8385C4.57163 29.2486 4.17837 28.6587 3.83426 27.823C3.58848 27.184 3.29353 26.2992 3.24438 24.5787C3.14606 22.7107 3.14606 22.1699 3.14606 17.5C3.14606 12.8301 3.14606 12.2893 3.24438 10.4213C3.34269 8.70084 3.58848 7.76685 3.83426 7.17697C4.12921 6.34129 4.52247 5.80056 5.16152 5.16152C5.7514 4.57163 6.34129 4.17837 7.17696 3.83427C7.81601 3.58848 8.70084 3.29354 10.4213 3.24438C12.2893 3.14607 12.8301 3.14607 17.5 3.14607ZM17.5 0C12.7317 0 12.1419 2.1975e-08 10.2739 0.0983146C8.4059 0.196629 7.1278 0.491573 6.04634 0.933989C4.91572 1.3764 3.93258 1.96629 2.94944 2.94944C1.96629 3.93258 1.3764 4.91573 0.933986 6.04635C0.49157 7.17697 0.196628 8.45506 0.0983131 10.2739C-1.50163e-06 12.1419 0 12.7317 0 17.5C0 22.2683 -1.50163e-06 22.8581 0.0983131 24.7261C0.196628 26.5941 0.49157 27.8722 0.933986 28.9537C1.3764 30.0843 1.96629 31.0674 2.94944 32.0506C3.93258 33.0337 4.91572 33.6236 6.04634 34.066C7.17696 34.5084 8.45505 34.8034 10.2739 34.9017C12.1419 35 12.7317 35 17.5 35C22.2683 35 22.8581 35 24.7261 34.9017C26.5941 34.8034 27.8722 34.5084 28.9537 34.066C30.0843 33.6236 31.0674 33.0337 32.0506 32.0506C33.0337 31.0674 33.6236 30.0843 34.066 28.9537C34.5084 27.823 34.8034 26.5449 34.9017 24.7261C35 22.8581 35 22.2683 35 17.5C35 12.7317 35 12.1419 34.9017 10.2739C34.8034 8.4059 34.5084 7.12781 34.066 6.04635C33.6236 4.91573 33.0337 3.93258 32.0506 2.94944C31.0674 1.96629 30.0843 1.3764 28.9537 0.933989C27.823 0.491573 26.5449 0.196629 24.7261 0.0983146C22.8581 2.1975e-08 22.2683 0 17.5 0Z" fill="white"/>
<path d="M17.5002 8.50415C12.5353 8.50415 8.50439 12.535 8.50439 17.4999C8.50439 22.4648 12.5353 26.4957 17.5002 26.4957C22.4651 26.4957 26.496 22.4648 26.496 17.4999C26.496 12.535 22.4651 8.50415 17.5002 8.50415ZM17.5002 23.3497C14.2558 23.3497 11.6505 20.7443 11.6505 17.4999C11.6505 14.2556 14.2558 11.6502 17.5002 11.6502C20.7446 11.6502 23.3499 14.2556 23.3499 17.4999C23.3499 20.6952 20.7446 23.3497 17.5002 23.3497Z" fill="white"/>
<path d="M26.8398 10.2739C28.0072 10.2739 28.9536 9.32755 28.9536 8.16015C28.9536 6.99275 28.0072 6.04639 26.8398 6.04639C25.6724 6.04639 24.7261 6.99275 24.7261 8.16015C24.7261 9.32755 25.6724 10.2739 26.8398 10.2739Z" fill="white"/>
</svg>
