<svg width="35" height="35" viewBox="0 0 35 35" fill="none" xmlns="http://www.w3.org/2000/svg">
<path d="M31.3542 0H3.74306C1.79861 0 0 1.45833 0 3.35417V31.3542C0 33.2986 1.84722 35 3.74306 35H31.3542C33.2986 35 34.5139 33.2986 34.5139 31.3542V3.40278C34.5139 1.45833 33.2986 0 31.3542 0ZM11.1806 27.7083H6.31944V12.6389H11.1806V27.7083ZM8.99306 10.7917C7.53472 10.7917 6.5625 9.77083 6.5625 8.45833C6.5625 7.14583 7.53472 6.125 9.04167 6.125C10.5486 6.125 11.4722 7.14583 11.4722 8.45833C11.5208 9.72222 10.5486 10.7917 8.99306 10.7917ZM28.1944 27.7083H23.3333V19.2986C23.3333 17.3542 22.8472 16.0417 21.1458 16.0417C19.8819 16.0417 19.0069 16.9167 18.6667 17.7917C18.5208 18.0833 18.4236 18.5208 18.4236 18.9583V27.7083H14.0486V17.4028C14.0486 15.5556 14.0486 14.1458 13.9514 12.6875H17.9861L18.1806 14.6319H18.2778C18.9097 13.6597 20.3194 12.25 22.7986 12.25C25.8611 12.25 28.0972 14.3403 28.0972 18.7639V27.7083H28.1944Z" fill="white"/>
</svg>
