<?xml version="1.0" encoding="utf-8"?>
<!-- Generator: Adobe Illustrator 24.2.3, SVG Export Plug-In . SVG Version: 6.00 Build 0)  -->
<svg version="1.1" id="Layer_1" xmlns="http://www.w3.org/2000/svg" xmlns:xlink="http://www.w3.org/1999/xlink" x="0px" y="0px"
	 viewBox="0 0 50 50" style="enable-background:new 0 0 50 50;" xml:space="preserve">
<style type="text/css">
	.st0{fill:none;}
	.st1{fill:#7F7F7F;}
</style>
<g>
	<path class="st0" d="M12.6,37c3.7,6.9,8.3,10.8,12.4,10.8s8.7-3.9,12.4-10.8c3.2-6,5.4-13.3,5.4-18.2C42.8,9.5,34.8,2,25,2
		S7.2,9.5,7.2,18.7C7.2,23.7,9.3,31,12.6,37z M25,12.2c3.9,0,7,3,7,6.6s-3.1,6.6-7,6.6s-7-3-7-6.6S21.1,12.2,25,12.2z"/>
	<path class="st0" d="M25,23.3c2.7,0,4.9-2,4.9-4.5c0-2.5-2.2-4.5-4.9-4.5c-2.7,0-4.9,2-4.9,4.5C20.1,21.3,22.3,23.3,25,23.3z"/>
	<path class="st0" d="M25,0c11,0,20,8.4,20,18.7c0,5.2-2.3,12.9-5.7,19.2c-4.2,7.7-9.3,11.9-14.4,11.9s-10.2-4.2-14.4-11.9
		C7.2,31.7,5,24,5,18.7C5,8.4,14,0,25,0H0v50h50V0H25z"/>
	<path class="st1" d="M5,18.7c0,5.2,2.3,12.9,5.7,19.2c4.2,7.7,9.3,11.9,14.4,11.9s10.2-4.2,14.4-11.9C42.8,31.7,45,24,45,18.7
		C45,8.4,36,0,25,0S5,8.4,5,18.7z M25,2c9.8,0,17.8,7.5,17.8,16.7c0,5-2.2,12.3-5.4,18.2c-3.7,6.9-8.3,10.8-12.4,10.8
		S16.3,43.8,12.6,37c-3.2-6-5.4-13.3-5.4-18.2C7.2,9.5,15.2,2,25,2z"/>
	<path class="st1" d="M25,25.3c3.9,0,7-3,7-6.6s-3.2-6.6-7-6.6c-3.9,0-7,3-7,6.6S21.1,25.3,25,25.3z M25,14.2c2.7,0,4.9,2,4.9,4.5
		c0,2.5-2.2,4.5-4.9,4.5c-2.7,0-4.9-2-4.9-4.5C20.1,16.2,22.3,14.2,25,14.2z"/>
</g>
</svg>
