<?xml version="1.0" encoding="utf-8"?>
<!-- Generator: Adobe Illustrator 24.2.3, SVG Export Plug-In . SVG Version: 6.00 Build 0)  -->
<svg version="1.1" id="Layer_1" xmlns="http://www.w3.org/2000/svg" xmlns:xlink="http://www.w3.org/1999/xlink" x="0px" y="0px"
	 viewBox="0 0 50 50" style="enable-background:new 0 0 50 50;" xml:space="preserve">
<style type="text/css">
	.st0{fill:none;}
	.st1{fill:#7F7F7F;}
</style>
<g>
	<path class="st0" d="M47,41.4H3c-1.6,0-3-1.3-3-2.8V50h50V38.6C50,40.1,48.7,41.4,47,41.4z"/>
	<path class="st0" d="M0,0v11.4c0-1,0.5-1.9,1.4-2.4C1.5,8.9,2.6,8.6,3,8.6h44c0.3,0,1.5,0.3,1.6,0.5c0.8,0.5,1.4,1.4,1.4,2.3V0H0z"
		/>
	<path class="st0" d="M26.6,23l18.7-12.7H4.6L23.4,23C24.3,23.7,25.6,23.7,26.6,23z"/>
	<path class="st0" d="M27.7,24.4c-0.8,0.5-1.7,0.8-2.7,0.8c-0.9,0-1.9-0.3-2.7-0.8L2.1,10.7c-0.2,0.2-0.3,0.4-0.3,0.7v27.2
		c0,0.6,0.5,1.1,1.2,1.1h44c0.7,0,1.2-0.5,1.2-1.1V11.4c0-0.3-0.1-0.5-0.3-0.7L27.7,24.4z"/>
	<path class="st1" d="M48.6,9.1c-0.2-0.2-1.3-0.5-1.6-0.5H3c-0.4,0-1.5,0.3-1.6,0.5C0.5,9.6,0,10.4,0,11.4v27.2c0,1.5,1.3,2.8,3,2.8
		h44c1.6,0,3-1.3,3-2.8V11.4C50,10.4,49.5,9.6,48.6,9.1z M45.4,10.3L26.6,23c-1,0.7-2.3,0.7-3.2,0L4.6,10.3H45.4z M48.2,38.6
		c0,0.6-0.5,1.1-1.2,1.1H3c-0.7,0-1.2-0.5-1.2-1.1V11.4c0-0.3,0.1-0.5,0.3-0.7l20.2,13.7c0.8,0.5,1.7,0.8,2.7,0.8
		c0.9,0,1.9-0.3,2.7-0.8l20.2-13.7c0.2,0.2,0.3,0.4,0.3,0.7V38.6z"/>
</g>
</svg>
