<svg width="58" height="39" viewBox="0 0 58 39" fill="none" xmlns="http://www.w3.org/2000/svg">
<path d="M54.5326 38.5052H3.46739C1.55507 38.5052 0 37.0464 0 35.2523V3.74806C0 1.95401 1.55507 0.495117 3.46739 0.495117H54.5326C56.4449 0.495117 58 1.95401 58 3.74806V35.272C57.979 37.0464 56.4449 38.5052 54.5326 38.5052ZM3.46739 2.4666C2.71087 2.4666 2.10145 3.03833 2.10145 3.74806V35.272C2.10145 35.9818 2.71087 36.5535 3.46739 36.5535H54.5326C55.2891 36.5535 55.8985 35.9818 55.8985 35.272V3.74806C55.8985 3.03833 55.2891 2.4666 54.5326 2.4666H3.46739Z" fill="#7F7F7F"/>
<path d="M28.9999 19.7372C27.9071 19.7372 26.8144 19.4217 25.8897 18.7909L1.76508 2.44729C1.28175 2.13185 1.17668 1.5207 1.51291 1.08697C1.84914 0.653245 2.50059 0.554671 2.98392 0.870108L27.1086 17.194C28.2223 17.9628 29.7354 17.9628 30.8702 17.194L54.9948 0.850393C55.4571 0.534956 56.1296 0.63353 56.4658 1.06726C56.802 1.50098 56.697 2.13185 56.2347 2.44729L32.11 18.7909C31.1644 19.4217 30.0926 19.7372 28.9999 19.7372Z" fill="#7F7F7F"/>
</svg>
