<svg width="130" height="78" viewBox="0 0 130 78" fill="none" xmlns="http://www.w3.org/2000/svg">
<g opacity="0.9">
<path d="M1.08333 25.761C0.473959 25.761 0 25.2914 0 24.6876V17.174V8.41928C0 3.75681 3.79167 0 8.4974 0H24.9167C25.5261 0 26 0.469601 26 1.07337V8.58699C26 13.3165 22.1068 17.174 17.3333 17.174H10.7995C6.33073 17.174 2.67448 20.4947 2.20052 24.7882C2.09896 25.3585 1.65886 25.761 1.08333 25.761Z" fill="#D19E5C"/>
<path d="M53.0831 25.761C52.4737 25.761 51.9998 25.2914 51.9998 24.6876V17.174V8.41928C51.9998 3.75681 55.7914 0 60.4971 0H76.9164C77.5258 0 77.9997 0.469601 77.9997 1.07337V8.58699C77.9997 13.3165 74.1065 17.174 69.3331 17.174H62.7992C58.3305 17.174 54.6742 20.4947 54.2003 24.7882C54.0987 25.3585 53.6248 25.761 53.0831 25.761Z" fill="#D19E5C"/>
<path d="M105.083 25.761C104.474 25.761 104 25.2914 104 24.6876V17.174V8.41928C104 3.75681 107.792 0 112.497 0H128.917C129.526 0 130 0.469601 130 1.07337V8.58699C130 13.3165 126.107 17.174 121.333 17.174H114.766C110.297 17.174 106.641 20.4947 106.167 24.7882C106.099 25.3585 105.625 25.761 105.083 25.761Z" fill="#D19E5C"/>
<path d="M1.08333 77.283C0.473959 77.283 0 76.8134 0 76.2096V68.696V59.9413C0 55.2788 3.79167 51.522 8.4974 51.522H24.9167C25.5261 51.522 26 51.9916 26 52.5953V60.109C26 64.8385 22.1068 68.696 17.3333 68.696H10.7995C6.33073 68.696 2.67448 72.0167 2.20052 76.3102C2.09896 76.8469 1.65886 77.283 1.08333 77.283Z" fill="#D19E5C"/>
<path d="M53.0831 77.283C52.4737 77.283 51.9998 76.8134 51.9998 76.2096V68.696V59.9413C51.9998 55.2788 55.7914 51.522 60.4971 51.522H76.9164C77.5258 51.522 77.9997 51.9916 77.9997 52.5953V60.109C77.9997 64.8385 74.1065 68.696 69.3331 68.696H62.7992C58.3305 68.696 54.6742 72.0167 54.2003 76.3102C54.0987 76.8469 53.6248 77.283 53.0831 77.283Z" fill="#D19E5C"/>
<path d="M105.083 77.283C104.474 77.283 104 76.8134 104 76.2096V68.696V59.9413C104 55.2788 107.792 51.522 112.497 51.522H128.917C129.526 51.522 130 51.9916 130 52.5953V60.109C130 64.8385 126.107 68.696 121.333 68.696H114.766C110.297 68.696 106.641 72.0167 106.167 76.3102C106.099 76.8469 105.625 77.283 105.083 77.283Z" fill="#D19E5C"/>
</g>
</svg>
