<?xml version="1.0" encoding="utf-8"?>
<!-- Generator: Adobe Illustrator 24.2.3, SVG Export Plug-In . SVG Version: 6.00 Build 0)  -->
<svg version="1.1" id="Layer_1" xmlns="http://www.w3.org/2000/svg" xmlns:xlink="http://www.w3.org/1999/xlink" x="0px" y="0px"
	 viewBox="0 0 50 50" style="enable-background:new 0 0 50 50;" xml:space="preserve">
<style type="text/css">
	.st0{fill:none;}
	.st1{fill:#7F7F7F;}
</style>
<g>
	<rect class="st0" width="50" height="50"/>
	<g>
		<path class="st1" d="M34.5,50h-19c-3.5,0-6.4-2.6-6.4-5.9V5.9c0-3.2,2.8-5.9,6.4-5.9h19c3.5,0,6.3,2.6,6.3,5.9v38.2
			C40.9,47.4,38,50,34.5,50z M15.5,2.1c-2.3,0-4.2,1.7-4.2,3.9v38.2c0,2.1,1.9,3.9,4.2,3.9h19c2.3,0,4.2-1.7,4.2-3.9V5.9
			c0-2.1-1.9-3.9-4.2-3.9H15.5z"/>
		<path class="st1" d="M25.1,45.8c1.1,0,1.9-0.8,1.9-1.8s-0.9-1.8-1.9-1.8c-1.1,0-1.9,0.8-1.9,1.8S24,45.8,25.1,45.8z"/>
		<path class="st1" d="M28.4,6h-6.8c-0.6,0-1.1-0.4-1.1-1c0-0.6,0.5-1,1.1-1h6.8c0.6,0,1.1,0.4,1.1,1C29.5,5.6,29,6,28.4,6z"/>
	</g>
</g>
</svg>
