<svg width="54" height="117" viewBox="0 0 54 117" fill="none" xmlns="http://www.w3.org/2000/svg">
<path d="M42.1846 49.9777C41.3375 50.7825 41.2105 52.0954 42.0152 52.9849C42.8199 53.832 44.2176 53.9167 45.0647 53.1119C50.5707 48.0718 53.7896 40.8716 53.7896 33.375V6.3531C53.7896 2.75301 50.7401 0 47.14 0H6.64958C3.04949 0 0 2.75301 0 6.3531V33.375C0 48.1565 12.1556 60.1427 26.8948 60.1427C39.3045 60.1427 49.5542 70.2653 49.5542 82.675V109.697C49.5542 110.968 48.4106 111.815 47.14 111.815H6.64958C5.37896 111.815 4.2354 110.968 4.2354 109.697V82.675C4.2354 76.3643 6.94606 70.3077 11.605 66.0723C12.4521 65.2675 12.5368 63.9546 11.7744 63.0651C10.9697 62.218 9.61436 62.1333 8.72493 62.9381C3.21891 68.0206 0 75.1784 0 82.675V109.697C0 113.297 3.04949 116.05 6.64958 116.05H47.14C50.7401 116.05 53.7896 113.297 53.7896 109.697V82.675C53.7896 67.9358 41.634 55.9073 26.8948 55.9073C14.4851 55.9073 4.2354 45.7847 4.2354 33.375V6.3531C4.2354 5.08248 5.37896 4.2354 6.64958 4.2354H47.14C48.4106 4.2354 49.5542 5.08248 49.5542 6.3531V33.375C49.5542 39.6857 46.8435 45.7423 42.1846 49.9777Z" fill="#D19E5C"/>
<path opacity="0.6" d="M10.8003 8.89453C9.61441 8.89453 8.68262 9.82632 8.68262 11.0122V29.8598C8.68262 31.0457 9.61441 31.9775 10.8003 31.9775C11.9862 31.9775 12.918 31.0457 12.918 29.8598V11.0122C12.918 9.82632 11.9862 8.89453 10.8003 8.89453Z" fill="#D19E5C"/>
<path opacity="0.6" d="M10.8003 81.1924C9.61441 81.1924 8.68262 82.1242 8.68262 83.3101V95.508C8.68262 96.694 9.61441 97.6257 10.8003 97.6257C11.9862 97.6257 12.918 96.694 12.918 95.508V83.3101C12.918 82.1242 11.9862 81.1924 10.8003 81.1924Z" fill="#D19E5C"/>
<path opacity="0.6" d="M10.7154 106.224C11.8849 106.224 12.8331 105.276 12.8331 104.106C12.8331 102.936 11.8849 101.988 10.7154 101.988C9.54578 101.988 8.59766 102.936 8.59766 104.106C8.59766 105.276 9.54578 106.224 10.7154 106.224Z" fill="#D19E5C"/>
</svg>
