<svg width="76" height="117" viewBox="0 0 76 117" fill="none" xmlns="http://www.w3.org/2000/svg">
<path opacity="0.6" d="M26.3862 28.8433C26.3862 30.0292 27.318 30.961 28.5039 30.961H47.3515C48.5374 30.961 49.4692 30.0292 49.4692 28.8433C49.4692 27.6574 48.5374 26.7256 47.3515 26.7256H28.4616C27.318 26.7256 26.3862 27.6574 26.3862 28.8433Z" fill="#D19E5C"/>
<path opacity="0.6" d="M17.3228 101.142C17.3228 102.328 18.2545 103.259 19.4405 103.259H44.1752C45.3611 103.259 46.2929 102.328 46.2929 101.142C46.2929 99.9557 45.3611 99.0239 44.1752 99.0239H19.4405C18.2545 99.0239 17.3228 99.9981 17.3228 101.142Z" fill="#D19E5C"/>
<path opacity="0.6" d="M50.5708 101.142C50.5708 102.328 51.5026 103.259 52.6885 103.259H56.4157C57.6016 103.259 58.5334 102.328 58.5334 101.142C58.5334 99.9557 57.6016 99.0239 56.4157 99.0239H52.6885C51.5026 99.0239 50.5708 99.9981 50.5708 101.142Z" fill="#D19E5C"/>
<path d="M71.6207 116.05H4.02363C1.73651 116.05 0 114.356 0 112.069V107.537C0 103.005 3.38832 99.4049 7.79314 99.1084L12.0709 30.9184H11.4779C7.87785 30.9184 5.08248 28.0807 5.08248 24.4806V2.1177C5.08248 0.931788 6.01427 0 7.20018 0H20.7535C21.9394 0 22.8712 0.931788 22.8712 2.1177V13.1297H28.8007V2.1177C28.8007 0.931788 29.7325 0 30.9184 0H44.4717C45.6576 0 46.5894 0.931788 46.5894 2.1177V13.1297H52.9425V2.1177C52.9425 0.931788 53.8743 0 55.0602 0H68.6135C69.7994 0 70.7312 0.931788 70.7312 2.1177V24.4806C70.7312 28.0384 67.8088 30.9184 64.1663 30.9184H63.5734L67.8511 99.1508C72.2983 99.4472 75.8137 103.132 75.8137 107.579V112.111C75.8137 114.313 73.9501 116.05 71.6207 116.05ZM4.2354 111.815H71.5783V107.537C71.5783 105.207 69.63 103.344 67.2158 103.344H65.8605C64.7593 103.344 63.8275 102.454 63.7428 101.353L59.2109 28.9278C59.1686 28.3348 59.3803 27.7842 59.7615 27.3607C60.1427 26.9372 60.7357 26.683 61.2863 26.683H64.124C65.3946 26.683 66.4535 25.7089 66.4535 24.4806V5.63308C66.4535 4.87071 65.8182 4.2354 65.0558 4.2354H58.4909C57.7285 4.2354 57.0932 4.87071 57.0932 5.63308V15.2474C57.0932 16.4334 56.1614 17.3651 54.9755 17.3651H44.387C43.2011 17.3651 42.2693 16.4334 42.2693 15.2474V5.63308C42.2693 4.87071 41.634 4.2354 40.8716 4.2354H34.4338C33.6714 4.2354 33.0361 4.87071 33.0361 5.63308V15.2474C33.0361 16.4334 32.1043 17.3651 30.9184 17.3651H20.7535C19.5676 17.3651 18.6358 16.4334 18.6358 15.2474V5.63308C18.6358 4.87071 18.0005 4.2354 17.2381 4.2354H10.7156C9.95319 4.2354 9.31788 4.87071 9.31788 5.63308V24.4806C9.31788 25.7512 10.2497 26.683 11.4779 26.683H14.3157C14.9086 26.683 15.4592 26.9372 15.8404 27.3607C16.2216 27.7842 16.4334 28.3772 16.391 28.9278L11.8591 101.353C11.7744 102.454 10.885 103.344 9.74142 103.344H8.3861C6.05662 103.344 4.19305 105.207 4.19305 107.537V111.815H4.2354Z" fill="#D19E5C"/>
</svg>
