<svg xmlns="http://www.w3.org/2000/svg" viewBox="0 0 120 45.35"><defs><style>.cls-1{fill:#fff;}.cls-2{fill:#d19e5c;}</style></defs><g id="Layer_2" data-name="Layer 2"><g id="Layer_1-2" data-name="Layer 1"><path class="cls-1" d="M14.12,42.35a4,4,0,0,1-1.47-1.64,5.23,5.23,0,0,1-.5-2.29A5.31,5.31,0,0,1,12.7,36a4.4,4.4,0,0,1,1.53-1.74,3.64,3.64,0,0,1,2.08-.64,5.43,5.43,0,0,1,1.89.3,2.73,2.73,0,0,1,1.2.76,1.49,1.49,0,0,1,.28.74c0,.31.05.73.05,1.26h-.27a3.35,3.35,0,0,0-.94-1.91,2.62,2.62,0,0,0-1.82-.62,3,3,0,0,0-2.34,1,4.9,4.9,0,0,0-.89,3.26,5.5,5.5,0,0,0,.35,2,3.25,3.25,0,0,0,1.07,1.47,2.84,2.84,0,0,0,1.81.57A3.17,3.17,0,0,0,18.42,42a4.34,4.34,0,0,0,1.31-1.4l.27.21a4,4,0,0,1-1.52,1.7,4.49,4.49,0,0,1-2.17.5A4.09,4.09,0,0,1,14.12,42.35Z"/><path class="cls-1" d="M22.47,42.38a2.67,2.67,0,0,1-1-1.18,3.73,3.73,0,0,1-.35-1.65,3.84,3.84,0,0,1,.35-1.65,2.81,2.81,0,0,1,1-1.19,3,3,0,0,1,1.59-.43,2.87,2.87,0,0,1,1.59.43,2.83,2.83,0,0,1,1,1.19A3.7,3.7,0,0,1,27,39.55a3.87,3.87,0,0,1-.35,1.65,2.77,2.77,0,0,1-2.61,1.62A2.79,2.79,0,0,1,22.47,42.38Zm2.47-.45a2.4,2.4,0,0,0,.59-1,4.64,4.64,0,0,0,.21-1.38,4.32,4.32,0,0,0-.21-1.39,2.46,2.46,0,0,0-.59-1,1.26,1.26,0,0,0-.88-.36,1.24,1.24,0,0,0-.88.36,2.26,2.26,0,0,0-.59,1,4.36,4.36,0,0,0-.21,1.39,4,4,0,0,0,.21,1.38,2.2,2.2,0,0,0,.59,1,1.24,1.24,0,0,0,.88.36A1.35,1.35,0,0,0,24.94,41.93Z"/><path class="cls-1" d="M28.78,38a2.12,2.12,0,0,0-.18-1,.81.81,0,0,0-.76-.33h-.27v-.27h1.21a1.7,1.7,0,0,1,.76.13.8.8,0,0,1,.38.41H30a2.09,2.09,0,0,1,.74-.47,2.49,2.49,0,0,1,1-.2,2.46,2.46,0,0,1,1.65.54A2.34,2.34,0,0,1,34,38.7v4H32.82v-4a1.88,1.88,0,0,0-.42-1.36,1.41,1.41,0,0,0-1.06-.44,1.82,1.82,0,0,0-1.34.71v5.09H28.79V38Z"/><path class="cls-1" d="M35.93,42.28a.87.87,0,0,1-.28-.51,5,5,0,0,1,0-.89h.27a1.63,1.63,0,0,0,.58,1,2,2,0,0,0,1.29.37A2,2,0,0,0,38.85,42a.77.77,0,0,0,.37-.68.88.88,0,0,0-.29-.67,3.08,3.08,0,0,0-.92-.54l-.8-.33A3.22,3.22,0,0,1,36,39.06,1.47,1.47,0,0,1,35.6,38a1.5,1.5,0,0,1,.61-1.27,2.61,2.61,0,0,1,1.6-.46,2.81,2.81,0,0,1,2,.54.9.9,0,0,1,.28.5,5,5,0,0,1,0,.9h-.27a1.62,1.62,0,0,0-.56-1,2,2,0,0,0-1.26-.36,1.57,1.57,0,0,0-1,.26.78.78,0,0,0-.36.67c0,.46.36.84,1.07,1.13l.81.33a4.07,4.07,0,0,1,1.32.8,1.45,1.45,0,0,1,.42,1.07,1.47,1.47,0,0,1-.66,1.28,2.88,2.88,0,0,1-1.69.46A2.87,2.87,0,0,1,35.93,42.28Z"/><path class="cls-1" d="M42.54,42.28a2.34,2.34,0,0,1-.64-1.87V38a2.15,2.15,0,0,0-.18-1,.81.81,0,0,0-.76-.33h-.13v-.27H41.9a1.63,1.63,0,0,1,.75.13A.71.71,0,0,1,43,37a3.61,3.61,0,0,1,.11,1v2.41a1.92,1.92,0,0,0,.42,1.37,1.46,1.46,0,0,0,1.06.43,1.8,1.8,0,0,0,1.34-.7V36.43h1.21v6.25h-.67L46,42.15h-.06a2.54,2.54,0,0,1-.74.47,2.71,2.71,0,0,1-1,.19A2.42,2.42,0,0,1,42.54,42.28Z"/><path class="cls-1" d="M49.14,35.49a2.06,2.06,0,0,0-.19-1,.8.8,0,0,0-.75-.32h-.27v-.27h1.21a1.74,1.74,0,0,1,.74.12.74.74,0,0,1,.36.46,4.13,4.13,0,0,1,.11,1v7.19H49.14Z"/><path class="cls-1" d="M53,42.39a1.75,1.75,0,0,1-.43-1.31V37h-.94v-.54h.94V35.22l.67-.8h.54v2h1.62V37H53.8V41.1c0,.8.32,1.2.94,1.2a2,2,0,0,0,.54-.07,2.07,2.07,0,0,0,.47-.2l.13.27a3,3,0,0,1-.68.38,2.77,2.77,0,0,1-1,.15A1.63,1.63,0,0,1,53,42.39Z"/><path class="cls-1" d="M57.07,38a2,2,0,0,0-.18-1,.8.8,0,0,0-.75-.33h-.27v-.27h1.2a1.63,1.63,0,0,1,.75.13.66.66,0,0,1,.35.46,3.56,3.56,0,0,1,.11,1v4.66H57.07Zm0-2.66a.86.86,0,0,1-.22-.6.59.59,0,0,1,.17-.44.61.61,0,0,1,.45-.16.7.7,0,0,1,.53.26.89.89,0,0,1,.22.6.59.59,0,0,1-.17.44.65.65,0,0,1-.45.16A.67.67,0,0,1,57.06,35.36Z"/><path class="cls-1" d="M60.38,38a2,2,0,0,0-.19-1,.79.79,0,0,0-.75-.33h-.27v-.27h1.21a1.73,1.73,0,0,1,.76.13.8.8,0,0,1,.38.41h.07a2.14,2.14,0,0,1,.73-.47,2.58,2.58,0,0,1,1-.2,2.46,2.46,0,0,1,1.65.54,2.34,2.34,0,0,1,.64,1.87v4H64.41v-4A1.88,1.88,0,0,0,64,37.32a1.41,1.41,0,0,0-1.06-.44,1.82,1.82,0,0,0-1.34.71v5.09H60.38Z"/><path class="cls-1" d="M67.68,44.86a1.72,1.72,0,0,1-.81-1.58,1.5,1.5,0,0,1,.42-1.06,2.49,2.49,0,0,1,1.06-.68.9.9,0,0,1-.54-.79.61.61,0,0,1,.12-.41,1.89,1.89,0,0,1,.35-.32,1.71,1.71,0,0,1-.72-.67,1.89,1.89,0,0,1-.29-1.07c0-1.33.85-2,2.55-2h2.49v.33l-.87.14v.06a1.85,1.85,0,0,1,.67.6,1.47,1.47,0,0,1,.27.87c0,1.34-.86,2-2.56,2-.94,0-1.41.16-1.41.47s.47.47,1.41.47a3.91,3.91,0,0,1,2.13.51,1.71,1.71,0,0,1,.83,1.55,1.74,1.74,0,0,1-.8,1.58,4.16,4.16,0,0,1-2.16.49A4,4,0,0,1,67.68,44.86Zm3.43-.42a1.41,1.41,0,0,0,.47-1.16c0-.89-.54-1.4-1.61-1.53l-.74-.07a1.84,1.84,0,0,0-.84.6,1.59,1.59,0,0,0-.3,1,1.44,1.44,0,0,0,.47,1.16,2,2,0,0,0,1.28.37A1.94,1.94,0,0,0,71.11,44.44Zm-.31-5a2,2,0,0,0,0-2.32,1.26,1.26,0,0,0-1-.38,1.32,1.32,0,0,0-1,.36,2,2,0,0,0,0,2.34,1.33,1.33,0,0,0,1,.37A1.35,1.35,0,0,0,70.8,39.46Z"/><path class="cls-1" d="M77.79,42.36a1.9,1.9,0,0,1-.73-1.55,1.73,1.73,0,0,1,.25-.93,3.08,3.08,0,0,1,.61-.73c.24-.21.59-.48,1.06-.82a4.63,4.63,0,0,1-.7-.74,3,3,0,0,1-.5-.88,2.68,2.68,0,0,1-.19-1,1.91,1.91,0,0,1,.65-1.52A2.63,2.63,0,0,1,80,33.61a2.39,2.39,0,0,1,1.62.52,1.69,1.69,0,0,1,.59,1.35A2.12,2.12,0,0,1,82,36.53a3.06,3.06,0,0,1-.66.82,11.7,11.7,0,0,1-1,.8L83,41.08A8.31,8.31,0,0,0,83.85,40q.21-.31.33-.54l.27.21c-.11.2-.2.39-.3.56a7.46,7.46,0,0,1-.9,1.21l1.2,1.29H83l-.54-.57a4.14,4.14,0,0,1-2.56.84A3.28,3.28,0,0,1,77.79,42.36Zm4.37-.56-2.78-3a3.76,3.76,0,0,0-.77.88,1.91,1.91,0,0,0-.28,1,1.59,1.59,0,0,0,1.81,1.8A3.2,3.2,0,0,0,82.16,41.8Zm-1.38-5.09a1.93,1.93,0,0,0,.31-1.09,1.75,1.75,0,0,0-.33-1.16,1,1,0,0,0-.74-.38,1,1,0,0,0-.81.39,1.87,1.87,0,0,0-.33,1.22,2,2,0,0,0,.2.9,3.62,3.62,0,0,0,.44.73,2,2,0,0,0,.34.36A4.79,4.79,0,0,0,80.78,36.71Z"/><path class="cls-1" d="M91.58,34.42H90.37q-1.68,0-1.68,1.53h-.27V35c0-.71.38-1.06,1.14-1.06h6.25v.53h-3v8.26H91.57V34.42Z"/><path class="cls-1" d="M96.5,42.64a1.73,1.73,0,0,1-.76-.59A1.76,1.76,0,0,1,95.43,41a1.48,1.48,0,0,1,.94-1.45,6.25,6.25,0,0,1,2.48-.42h.41a3.05,3.05,0,0,0-.37-1.79,1.23,1.23,0,0,0-1-.48,1.71,1.71,0,0,0-1,.25,1.46,1.46,0,0,0-.51.88h-.61a3.35,3.35,0,0,1,.06-.71.9.9,0,0,1,.27-.48,1.65,1.65,0,0,1,.81-.36,6.56,6.56,0,0,1,1.21-.11,2.49,2.49,0,0,1,1.73.57,3,3,0,0,1,.63,2.23v3.59H99.8l-.48-.6h-.06a1.9,1.9,0,0,1-.71.52,2.91,2.91,0,0,1-1.17.21A2.12,2.12,0,0,1,96.5,42.64ZM98.71,42a2.24,2.24,0,0,0,.55-.59v-1.8h-.41a3,3,0,0,0-1.57.36,1.11,1.11,0,0,0-.58,1,1.21,1.21,0,0,0,.37.94,1.32,1.32,0,0,0,.91.33A1.21,1.21,0,0,0,98.71,42Z"/><path class="cls-1" d="M104,39.68l-1.16-1.93a1.89,1.89,0,0,0-1.39-1.07v-.27h1.14a1.39,1.39,0,0,1,.84.28,2.32,2.32,0,0,1,.68.79l.84,1.4,1.75-2.47h.67l-2.15,3,1.17,1.94a1.91,1.91,0,0,0,1.45,1.07v.26h-1.21a1.44,1.44,0,0,1-.83-.27,2.33,2.33,0,0,1-.69-.79l-.84-1.4-1.75,2.46h-.67Z"/><path class="cls-2" d="M5.58,17.32a.24.24,0,0,1,.24.24v3.65a1.89,1.89,0,0,1-1.9,1.88H.25A.24.24,0,0,1,0,22.85V21.17a1.93,1.93,0,0,1,1.94-1.93H3.41a1.94,1.94,0,0,0,1.92-1.71A.25.25,0,0,1,5.58,17.32Z"/><path class="cls-2" d="M8.73.25A.26.26,0,0,1,9,0h5.08a1.91,1.91,0,0,1,1.86,1.38l5.93,20.15a1.43,1.43,0,0,0,1.21,1,.25.25,0,0,1,.21.25.25.25,0,0,1-.25.25l-5.08,0a1.94,1.94,0,0,1-1.87-1.39l-2.5-8.51a1,1,0,0,0-.93-.69h-.53a.48.48,0,0,0-.48.48v.47A1.95,1.95,0,1,1,9.7,11.54h3.39l-2.94-10a1.49,1.49,0,0,0-1.21-1A.23.23,0,0,1,8.73.25Z"/><path class="cls-2" d="M39.53,23.09a.22.22,0,0,0,.22-.22V13.8a5.28,5.28,0,0,0-3.87-4.9,8.06,8.06,0,0,0-1.94-.25,7.83,7.83,0,0,0-3.86,1,.22.22,0,0,1-.31-.08,2,2,0,0,0-1.66-.92h-3a.26.26,0,0,0-.25.24.25.25,0,0,0,.24.26,1.05,1.05,0,0,1,1.07,1.05V22.34a.77.77,0,0,0,.77.76h2.86a.23.23,0,0,0,.24-.23v-10a2.91,2.91,0,0,1,5.82,0v9.43a.76.76,0,0,0,.77.76h2.89Z"/><path class="cls-2" d="M45.91,8.67h-3a.25.25,0,1,0,0,.49A1.05,1.05,0,0,1,44,10.21V22.32a.78.78,0,0,0,.77.77h2.87a.23.23,0,0,0,.23-.24V10.6A1.93,1.93,0,0,0,45.91,8.67Z"/><path class="cls-2" d="M45.57,7a1.91,1.91,0,1,0-1.92-1.9A1.91,1.91,0,0,0,45.57,7Z"/><path class="cls-2" d="M95.27,22.87a.24.24,0,0,1-.24.23H92.16a.76.76,0,0,1-.77-.76V12.91a2.92,2.92,0,0,0-5.84,0v10a.23.23,0,0,1-.23.23H82.45a.77.77,0,0,1-.77-.76V10.21a1.05,1.05,0,0,0-1.06-1.05.24.24,0,0,1-.25-.25.26.26,0,0,1,.26-.25h3a1.92,1.92,0,0,1,1.65.92.24.24,0,0,0,.32.07,7.63,7.63,0,0,1,3.85-1,7.87,7.87,0,0,1,2,.24,5.35,5.35,0,0,1,2.37,1.41.47.47,0,0,0,.64,0c.26-.21.55-.44.88-.66a7.43,7.43,0,0,1,3.86-1,7.81,7.81,0,0,1,1.94.24A5.29,5.29,0,0,1,105,13.79v9.06a.23.23,0,0,1-.23.23h-2.87a.78.78,0,0,1-.77-.77V12.88a2.91,2.91,0,0,0-5.81,0Z"/><path class="cls-2" d="M66.15,19c0,2.26,2.18,4.08,4.86,4.08a5.54,5.54,0,0,0,3.15-.95.15.15,0,0,1,.24.12v.08a.77.77,0,0,0,.77.76H78a.24.24,0,0,0,.24-.23v-9A5.32,5.32,0,0,0,74.4,8.91a7.77,7.77,0,0,0-1.94-.24,7.66,7.66,0,0,0-3.31.73h0a4,4,0,0,0-.53.33,4.54,4.54,0,0,0-.48.39,3.07,3.07,0,0,0-1,2.17v.36a.36.36,0,0,0,.36.36h1.08a1,1,0,0,0,1-.95v0a1.92,1.92,0,0,1,1.91-1.92h0a2.91,2.91,0,0,1,2.92,2.8v1.76a.25.25,0,0,1-.26.26H71C66,15.14,66.15,19,66.15,19Zm7.68,2.16a2.89,2.89,0,0,1-1.58.49h0a2.58,2.58,0,0,1-1.91-.89,3,3,0,0,1-.72-2.45,2.57,2.57,0,0,1,2.55-2.18h2a.25.25,0,0,1,.26.25v3.74a1.22,1.22,0,0,1-.57,1Z"/><path class="cls-2" d="M107.88,19c0,2.26,2.17,4.08,4.86,4.08a5.48,5.48,0,0,0,3.14-.95.16.16,0,0,1,.25.12v.08a.76.76,0,0,0,.77.76h2.86a.23.23,0,0,0,.24-.23v-9a5.31,5.31,0,0,0-3.87-4.91,7.87,7.87,0,0,0-1.95-.24,7.64,7.64,0,0,0-3.3.73h0a5.84,5.84,0,0,0-.53.33,3.6,3.6,0,0,0-.47.39,3.07,3.07,0,0,0-1,2.17v.36a.36.36,0,0,0,.35.36h1.09a1,1,0,0,0,1-.95v0a1.92,1.92,0,0,1,1.91-1.92h0a2.91,2.91,0,0,1,2.92,2.8v1.76a.25.25,0,0,1-.25.26h-3.13C107.76,15.14,107.88,19,107.88,19Zm7.68,2.16a2.86,2.86,0,0,1-1.58.49h0a2.55,2.55,0,0,1-1.91-.89,3,3,0,0,1-.73-2.45,2.58,2.58,0,0,1,2.55-2.18h2a.25.25,0,0,1,.25.25v3.74A1.22,1.22,0,0,1,115.56,21.17Z"/><path class="cls-2" d="M55.92,22.74A7.29,7.29,0,0,1,56,9a6.22,6.22,0,0,1,2-.31,6.76,6.76,0,0,1,3.63,1,3.16,3.16,0,0,1,1.45,2.65v.27a.36.36,0,0,1-.36.36h-.66a.93.93,0,0,1-.93-.92c-.06-1.78-2.28-1.63-2.28-1.63a3.65,3.65,0,0,0-3.33,2.45,9.69,9.69,0,0,0-.46,3,9.87,9.87,0,0,0,.41,2.82A3.72,3.72,0,0,0,59,21.27a4.69,4.69,0,0,0,3.57-1.35.48.48,0,0,1,.42-.23.49.49,0,0,1,.48.48.47.47,0,0,1-.12.32,6.87,6.87,0,0,1-5.32,2.58A5.84,5.84,0,0,1,55.92,22.74Z"/></g></g></svg>