<svg width="120" height="46" viewBox="0 0 120 46" fill="none" xmlns="http://www.w3.org/2000/svg">
<path d="M14.1165 42.6881C13.4826 42.2823 13.0007 41.7329 12.6542 41.0397C12.316 40.3466 12.147 39.5689 12.147 38.7236C12.147 37.8445 12.3329 37.033 12.7049 36.2891C13.0768 35.5452 13.584 34.962 14.2264 34.5309C14.8689 34.0998 15.562 33.8884 16.3143 33.8884C17.0328 33.8884 17.6584 33.9899 18.1994 34.1927C18.7404 34.3956 19.1461 34.6492 19.3997 34.962C19.5519 35.1479 19.6448 35.4015 19.6787 35.7058C19.7125 36.0186 19.7294 36.4413 19.7294 36.9738H19.4589C19.2898 36.1031 18.9771 35.4607 18.5206 35.0465C18.0641 34.6323 17.4555 34.421 16.7032 34.421C15.7395 34.421 14.9534 34.7591 14.3617 35.4438C13.77 36.1285 13.4741 37.2189 13.4741 38.7236C13.4741 39.4336 13.5924 40.093 13.8207 40.7016C14.0489 41.3102 14.4039 41.8089 14.8858 42.1893C15.3676 42.5697 15.9762 42.7641 16.7032 42.7641C17.3541 42.7641 17.9289 42.6035 18.4192 42.2908C18.9094 41.978 19.3405 41.5046 19.7294 40.8791L19.9999 41.082C19.5857 41.885 19.0785 42.4598 18.4783 42.7979C17.8697 43.1361 17.1512 43.3051 16.3059 43.3051C15.4775 43.2967 14.7505 43.0938 14.1165 42.6881Z" fill="white"/>
<path d="M22.468 42.7222C22.02 42.4348 21.6819 42.0375 21.4452 41.5303C21.2085 41.0316 21.0986 40.4737 21.0986 39.8651C21.0986 39.2564 21.217 38.6985 21.4452 38.1998C21.6819 37.7011 22.02 37.3038 22.468 37.0079C22.916 36.7205 23.4486 36.5684 24.0572 36.5684C24.6658 36.5684 25.1984 36.7121 25.6464 37.0079C26.0944 37.2953 26.4325 37.6926 26.6692 38.1998C26.9059 38.6985 27.0158 39.2564 27.0158 39.8651C27.0158 40.4737 26.8975 41.0316 26.6692 41.5303C26.4325 42.0291 26.0944 42.4263 25.6464 42.7222C25.1984 43.0096 24.6658 43.1618 24.0572 43.1618C23.4486 43.1618 22.916 43.0181 22.468 42.7222ZM24.9363 42.2657C25.1899 42.0206 25.3928 41.6909 25.5281 41.2683C25.6633 40.8456 25.7394 40.3807 25.7394 39.8735C25.7394 39.3663 25.6718 38.893 25.5281 38.4788C25.3928 38.0561 25.1899 37.7264 24.9363 37.4813C24.6827 37.2362 24.3869 37.1178 24.0572 37.1178C23.7275 37.1178 23.4317 37.2362 23.1781 37.4813C22.9245 37.7264 22.7216 38.0561 22.5864 38.4788C22.4511 38.9014 22.3751 39.3663 22.3751 39.8735C22.3751 40.3807 22.4427 40.8541 22.5864 41.2683C22.7216 41.6909 22.9245 42.0206 23.1781 42.2657C23.4317 42.5109 23.7275 42.6292 24.0572 42.6292C24.3869 42.6208 24.6827 42.5024 24.9363 42.2657Z" fill="white"/>
<path d="M28.7825 38.3265C28.7825 37.8701 28.7233 37.532 28.5965 37.3122C28.4698 37.0924 28.2162 36.9825 27.8442 36.9825H27.5737V36.712H28.7825C29.1122 36.712 29.3658 36.7543 29.5433 36.8473C29.7208 36.9402 29.8476 37.0755 29.9237 37.253H29.9913C30.1773 37.067 30.4224 36.9064 30.7267 36.7796C31.0226 36.6528 31.3691 36.5852 31.7411 36.5852C32.4173 36.5852 32.9583 36.7627 33.3894 37.1262C33.8121 37.4812 34.0319 38.1152 34.0319 39.0112V43.0265H32.8231V38.9943C32.8231 38.3688 32.6794 37.9039 32.4004 37.6165C32.1215 37.3291 31.7664 37.1769 31.3438 37.1769C30.8704 37.1769 30.4224 37.4136 29.9998 37.887V43.0265H28.791V38.3265H28.7825Z" fill="white"/>
<path d="M35.9259 42.6204C35.7737 42.4683 35.6807 42.2992 35.6469 42.1048C35.6131 41.9104 35.5962 41.6145 35.5962 41.2088H35.8667C35.9512 41.6568 36.1456 42.0034 36.45 42.2485C36.7627 42.4936 37.1938 42.6204 37.7433 42.6204C38.2336 42.6204 38.6055 42.5359 38.8506 42.3668C39.0958 42.1978 39.2226 41.9695 39.2226 41.6821C39.2226 41.4201 39.1296 41.2003 38.9352 41.0059C38.7407 40.8199 38.4364 40.6424 38.0138 40.4649L37.2107 40.1268C36.6697 39.9154 36.2724 39.6618 36.0019 39.3744C35.7314 39.087 35.5962 38.732 35.5962 38.3094C35.5962 37.7599 35.7991 37.3373 36.2133 37.0245C36.6275 36.7117 37.16 36.5596 37.8109 36.5596C38.7999 36.5596 39.4677 36.7371 39.8227 37.1006C39.9749 37.2527 40.0679 37.4218 40.1017 37.6078C40.1355 37.7937 40.1524 38.098 40.1524 38.5122H39.8819C39.8143 38.0642 39.6199 37.7176 39.3155 37.4725C39.0112 37.2274 38.597 37.1006 38.0645 37.1006C37.6418 37.1006 37.3122 37.1851 37.0755 37.3626C36.8388 37.5401 36.7205 37.7599 36.7205 38.0389C36.7205 38.5038 37.0755 38.8842 37.794 39.18L38.597 39.5181C39.2057 39.7717 39.6537 40.0338 39.9242 40.3212C40.2031 40.6001 40.3384 40.9636 40.3384 41.4032C40.3384 41.9526 40.1186 42.3753 39.679 42.6881C39.2395 43.0008 38.6731 43.153 37.9884 43.153C36.974 43.1614 36.2809 42.9839 35.9259 42.6204Z" fill="white"/>
<path d="M42.5446 42.6208C42.1219 42.2657 41.9022 41.6318 41.9022 40.7357V38.3181C41.9022 37.8617 41.843 37.5236 41.7162 37.3038C41.5894 37.084 41.3358 36.9741 40.9639 36.9741H40.8286V36.7036H41.9022C42.2318 36.7036 42.4854 36.7459 42.646 36.8304C42.8151 36.9149 42.9334 37.0671 43.0011 37.2953C43.0687 37.5236 43.1109 37.8617 43.1109 38.3181V40.7442C43.1109 41.3697 43.2546 41.8346 43.5336 42.122C43.8126 42.4094 44.1676 42.5616 44.5902 42.5616C45.0636 42.5616 45.5116 42.3249 45.9343 41.8515V36.7205H47.1431V43.0265H46.4668L45.9934 42.4855H45.9258C45.7399 42.6715 45.4947 42.8321 45.1904 42.9589C44.8861 43.0857 44.548 43.1533 44.176 43.1533C43.5167 43.1618 42.9672 42.9843 42.5446 42.6208Z" fill="white"/>
<path d="M49.138 35.7737C49.138 35.3173 49.0788 34.9791 48.952 34.7593C48.8252 34.5396 48.5716 34.4297 48.1997 34.4297H47.9292V34.1592H49.138C49.4677 34.1592 49.7213 34.2014 49.8819 34.286C50.0509 34.3705 50.1693 34.5227 50.2369 34.7509C50.3045 34.9791 50.3468 35.3173 50.3468 35.7737V43.0265H49.138V35.7737Z" fill="white"/>
<path d="M53.0178 42.7304C52.7304 42.443 52.5867 42.0034 52.5867 41.4117V37.2443H51.6484V36.7033H52.5867V35.503L53.263 34.7H53.804V36.7202H55.4185V37.2612H53.804V41.4286C53.804 42.2317 54.1167 42.6374 54.7423 42.6374C54.9536 42.6374 55.1396 42.612 55.2833 42.5698C55.427 42.5275 55.5876 42.4599 55.7482 42.3669L55.8834 42.6374C55.6806 42.7896 55.4523 42.9164 55.1987 43.0178C54.9451 43.1192 54.6155 43.1699 54.2013 43.1699C53.7025 43.1615 53.3052 43.0178 53.0178 42.7304Z" fill="white"/>
<path d="M57.075 38.3264C57.075 37.8699 57.0158 37.5318 56.889 37.312C56.7622 37.0923 56.5086 36.9824 56.1367 36.9824H55.8662V36.7119H57.075C57.4047 36.7119 57.6583 36.7541 57.8189 36.8387C57.9879 36.9232 58.1063 37.0753 58.1739 37.3036C58.2415 37.5318 58.2838 37.8699 58.2838 38.3264V43.0263H57.075V38.3264ZM57.0581 35.6468C56.9144 35.4777 56.8383 35.2748 56.8383 35.0382C56.8383 34.8522 56.8975 34.7 57.0074 34.5986C57.1173 34.4887 57.2694 34.438 57.4554 34.438C57.6583 34.438 57.8358 34.5225 57.9879 34.6916C58.1316 34.8606 58.2077 35.0635 58.2077 35.3002C58.2077 35.4862 58.1485 35.6383 58.0386 35.7398C57.9288 35.8497 57.7766 35.9004 57.5906 35.9004C57.3793 35.9004 57.2018 35.8158 57.0581 35.6468Z" fill="white"/>
<path d="M60.3807 38.3265C60.3807 37.8701 60.3215 37.532 60.1947 37.3122C60.0679 37.0924 59.8143 36.9825 59.4424 36.9825H59.1719V36.712H60.3807C60.7103 36.712 60.9639 36.7543 61.1414 36.8473C61.319 36.9402 61.4458 37.0755 61.5218 37.253H61.5895C61.7754 37.067 62.0206 36.9064 62.3249 36.7796C62.6207 36.6528 62.9673 36.5852 63.3392 36.5852C64.0155 36.5852 64.5565 36.7627 64.9876 37.1262C65.4102 37.4812 65.63 38.1152 65.63 39.0112V43.0265H64.4128V38.9943C64.4128 38.3688 64.2691 37.9039 63.9901 37.6165C63.7112 37.3291 63.3562 37.1769 62.9335 37.1769C62.4601 37.1769 62.0121 37.4136 61.5895 37.887V43.0265H60.3807V38.3265Z" fill="white"/>
<path d="M67.6751 45.2158C67.1426 44.8862 66.8721 44.3536 66.8721 43.6267C66.8721 43.2125 67.0073 42.8574 67.2863 42.5531C67.5652 42.2488 67.9203 42.0206 68.3514 41.8769C67.9963 41.6825 67.8104 41.412 67.8104 41.0738C67.8104 40.8963 67.8526 40.7526 67.9287 40.6596C68.0132 40.5582 68.1231 40.4568 68.2753 40.3384C67.9879 40.1947 67.7512 39.9749 67.5568 39.6622C67.3624 39.3579 67.2694 39.0028 67.2694 38.5886C67.2694 37.2446 68.1231 36.5684 69.8222 36.5684H72.3074V36.9065L71.4367 37.0417V37.1094C71.7157 37.2531 71.9439 37.4559 72.113 37.7095C72.2905 37.9631 72.375 38.259 72.375 38.5886C72.375 39.9327 71.5213 40.6005 69.8222 40.6005C68.8839 40.6005 68.4105 40.7611 68.4105 41.0738C68.4105 41.3866 68.8839 41.5472 69.8222 41.5472C70.6929 41.5472 71.4029 41.7163 71.9524 42.0628C72.5018 42.4094 72.7808 42.9335 72.7808 43.6267C72.7808 44.3536 72.5103 44.8777 71.9777 45.2158C71.4452 45.5455 70.7267 45.7146 69.8222 45.7146C68.9262 45.7146 68.2077 45.554 67.6751 45.2158ZM71.1071 44.7932C71.4198 44.5396 71.5804 44.1507 71.5804 43.6267C71.5804 42.7306 71.0394 42.215 69.9659 42.0798L69.2305 42.0121C68.867 42.1558 68.5796 42.3587 68.3852 42.6207C68.1908 42.8828 68.0893 43.2125 68.0893 43.6267C68.0893 44.1423 68.2499 44.5311 68.5627 44.7932C68.8755 45.0468 69.2981 45.1736 69.8391 45.1736C70.3716 45.182 70.7943 45.0468 71.1071 44.7932ZM70.8028 39.7721C71.0479 39.5269 71.1747 39.1296 71.1747 38.5971C71.1747 38.0899 71.0479 37.7011 70.8028 37.439C70.5576 37.177 70.2279 37.0502 69.8306 37.0502C69.4249 37.0502 69.1037 37.177 68.8585 37.4221C68.6134 37.6673 68.4866 38.0646 68.4866 38.5971C68.4866 39.1381 68.6134 39.5269 68.8585 39.7721C69.1037 40.0172 69.4334 40.144 69.8306 40.144C70.2364 40.1355 70.5576 40.0172 70.8028 39.7721Z" fill="white"/>
<path d="M77.7935 42.6967C77.3032 42.2994 77.0581 41.7838 77.0581 41.1413C77.0581 40.7948 77.1426 40.4735 77.3117 40.1946C77.4808 39.9156 77.6836 39.6705 77.9203 39.4592C78.157 39.2563 78.512 38.9773 78.977 38.6392C78.6811 38.3687 78.4444 38.1236 78.2754 37.8869C78.0725 37.6248 77.9034 37.3374 77.7766 37.0078C77.6498 36.6781 77.5907 36.34 77.5907 35.9765C77.5907 35.3341 77.8104 34.8184 78.2415 34.4465C78.6726 34.0661 79.2644 33.8801 80.0082 33.8801C80.7014 33.8801 81.2424 34.0576 81.6312 34.4042C82.0285 34.7508 82.2229 35.2073 82.2229 35.7652C82.2229 36.1625 82.1384 36.509 81.9694 36.8218C81.8003 37.1346 81.5805 37.4051 81.31 37.6502C81.0395 37.8953 80.6929 38.1574 80.2618 38.4532L82.9668 41.4118C83.288 41.0652 83.5839 40.6849 83.8544 40.2707C83.9896 40.0593 84.0995 39.8734 84.1756 39.7297L84.4461 39.9325C84.3447 40.1354 84.2517 40.3298 84.1502 40.4989C83.8797 40.9554 83.5839 41.3611 83.2458 41.7246L84.4461 43.0264H82.9668L82.4258 42.4516C81.6735 43.0179 80.8197 43.2969 79.873 43.2969C78.977 43.2969 78.2838 43.094 77.7935 42.6967ZM82.1553 42.1388L79.3827 39.1126C79.0446 39.4084 78.7825 39.7043 78.605 40.0002C78.4275 40.296 78.3345 40.6341 78.3345 41.0061C78.3345 42.2149 78.9347 42.8235 80.135 42.8235C80.8958 42.8235 81.5636 42.5953 82.1553 42.1388ZM80.7775 36.9993C80.9888 36.6781 81.0902 36.3146 81.0902 35.9004C81.0902 35.3848 80.9803 34.9959 80.7606 34.7339C80.5408 34.4803 80.2956 34.3535 80.0167 34.3535C79.7039 34.3535 79.4334 34.4803 79.2136 34.7423C78.9854 35.0044 78.8755 35.4186 78.8755 35.9765C78.8755 36.2893 78.9431 36.5936 79.0784 36.881C79.2136 37.1684 79.3573 37.4135 79.518 37.6164C79.6786 37.8108 79.7885 37.9376 79.8561 37.9799C80.2618 37.6502 80.5661 37.3205 80.7775 36.9993Z" fill="white"/>
<path d="M91.5809 34.6917H90.3721C89.2478 34.6917 88.6899 35.2074 88.6899 36.2386H88.4194V35.2327C88.4194 34.5142 88.7998 34.1592 89.5606 34.1592H95.8074V34.7002H92.7812V43.0265H91.5724V34.6917H91.5809Z" fill="white"/>
<path d="M96.5003 42.9841C96.2044 42.8658 95.9508 42.6629 95.7395 42.3839C95.5282 42.105 95.4268 41.7415 95.4268 41.285C95.4268 40.6003 95.7395 40.1185 96.3735 39.8311C97.0075 39.5437 97.8359 39.4 98.8503 39.4H99.256C99.256 38.5209 99.1377 37.9207 98.8925 37.5995C98.6474 37.2783 98.3008 37.1177 97.8443 37.1177C97.4386 37.1177 97.1174 37.2022 96.8807 37.3712C96.6355 37.5403 96.4665 37.8362 96.3735 38.2588H95.7649C95.7649 37.9545 95.7818 37.7178 95.8156 37.5403C95.8494 37.3628 95.9424 37.2022 96.0946 37.05C96.2552 36.8894 96.5257 36.7711 96.8976 36.695C97.2695 36.6189 97.6753 36.5767 98.1148 36.5767C98.8418 36.5767 99.4166 36.7711 99.8393 37.1599C100.262 37.5488 100.473 38.2926 100.473 39.4V43.0264H99.797L99.3236 42.4177H99.256C99.0954 42.6206 98.8587 42.7981 98.5459 42.9418C98.2332 43.0855 97.8443 43.1532 97.3794 43.1532C97.0836 43.1616 96.7962 43.1024 96.5003 42.9841ZM98.715 42.3417C98.9094 42.198 99.0954 42.0035 99.256 41.7499V39.9325H98.8503C98.1909 39.9325 97.6668 40.0593 97.278 40.3045C96.8891 40.5496 96.7032 40.8793 96.7032 41.2766C96.7032 41.6908 96.83 42.0035 97.0751 42.2233C97.3202 42.4431 97.6246 42.553 97.9796 42.553C98.267 42.5614 98.5206 42.4854 98.715 42.3417Z" fill="white"/>
<path d="M104.024 40.0003L102.857 38.0477C102.477 37.3968 102.02 37.0333 101.471 36.9741V36.7036H102.612C102.908 36.7036 103.187 36.7966 103.449 36.9826C103.711 37.1685 103.939 37.439 104.133 37.7772L104.97 39.1888L106.72 36.7036H107.388L105.241 39.7298L106.407 41.6825C106.771 42.3249 107.261 42.6884 107.861 42.756V43.0265H106.652C106.357 43.0265 106.078 42.9335 105.816 42.7476C105.554 42.5616 105.325 42.2911 105.131 41.953L104.294 40.5413L102.544 43.0265H101.868L104.024 40.0003Z" fill="white"/>
<path d="M5.57904 17.4556C5.71429 17.4556 5.82418 17.5655 5.82418 17.7007V19.3998V21.3778C5.82418 22.426 4.97041 23.2797 3.92223 23.2797H0.245139C0.10989 23.2797 0 23.1699 0 23.0346V21.3355C0 20.262 0.870668 19.3913 1.94421 19.3913H3.40659C4.40406 19.3913 5.22401 18.639 5.3339 17.6669C5.3508 17.5486 5.45224 17.4556 5.57904 17.4556Z" fill="#D19E5C"/>
<path d="M8.73202 0.253593C8.73202 0.118343 8.84191 0 8.98562 0H14.0744C14.9366 0 15.6974 0.566357 15.9341 1.39476L21.8597 21.7075C22.0203 22.2739 22.5021 22.6796 23.0685 22.7557C23.1953 22.7726 23.2798 22.8825 23.2798 23.0008C23.2798 23.1361 23.1699 23.2544 23.0262 23.2544L17.9459 23.2713C17.0837 23.2713 16.3229 22.705 16.0778 21.8766L13.5756 13.2967C13.4573 12.891 13.0769 12.6036 12.6543 12.6036H12.1217C11.8512 12.6036 11.6399 12.8233 11.6399 13.0854V13.5587C11.6399 14.6323 10.7692 15.503 9.69568 15.503C8.63059 15.503 7.75146 14.6323 7.75146 13.5672C7.75146 12.4937 8.62213 11.6314 9.69568 11.6314H13.0854L10.1521 1.55537C9.99153 0.989011 9.50971 0.583263 8.94335 0.498732C8.81655 0.481826 8.73202 0.380389 8.73202 0.253593Z" fill="#D19E5C"/>
<path d="M39.5263 23.2797C39.6531 23.2797 39.7545 23.1782 39.7545 23.0514V13.9136C39.6785 11.5552 38.0639 9.58565 35.883 8.96857C35.0546 8.71498 33.9388 8.72343 33.9388 8.72343C32.0369 8.70652 30.5998 9.44194 30.0842 9.74626C29.9743 9.81388 29.8391 9.78007 29.7714 9.67018C29.5686 9.34896 29.0698 8.75724 28.1146 8.74034H25.1222C24.987 8.74034 24.8771 8.85023 24.8687 8.98548C24.8687 9.12073 24.9785 9.23907 25.1138 9.23907C25.7055 9.23907 26.1789 9.71244 26.1789 10.3042V22.5189C26.1789 22.9415 26.5255 23.2881 26.9481 23.2881H29.8137C29.9405 23.2881 30.0504 23.1867 30.0504 23.0514V12.9922C30.1096 11.4284 31.386 10.1858 32.9583 10.1858C34.539 10.1858 35.8238 11.4369 35.8661 13.0091V22.5189C35.8661 22.9415 36.2127 23.2881 36.6353 23.2881H39.5263V23.2797Z" fill="#D19E5C"/>
<path d="M45.9089 8.74023H44.4634H42.9165C42.7813 8.74023 42.6714 8.85012 42.6714 8.98537C42.6714 9.12062 42.7813 9.23051 42.9165 9.23051C43.5082 9.23051 43.9816 9.70389 43.9816 10.2956V22.5019C43.9816 22.9245 44.3282 23.2711 44.7508 23.2711H47.6164C47.7517 23.2711 47.8531 23.1612 47.8531 23.0344V10.6844C47.8531 9.6109 46.9825 8.74023 45.9089 8.74023Z" fill="#D19E5C"/>
<path d="M45.5707 7.0667C46.6305 7.0667 47.4896 6.2076 47.4896 5.14785C47.4896 4.0881 46.6305 3.229 45.5707 3.229C44.5109 3.229 43.6519 4.0881 43.6519 5.14785C43.6519 6.2076 44.5109 7.0667 45.5707 7.0667Z" fill="#D19E5C"/>
<path d="M95.2663 23.0515C95.2663 23.1783 95.1649 23.2882 95.0296 23.2882H92.1556C91.7329 23.2882 91.3864 22.9416 91.3864 22.5189V13.0092C91.3356 11.4454 90.0508 10.1859 88.4701 10.1859C86.8978 10.1859 85.6129 11.4369 85.5537 12.9923V23.0515C85.5537 23.1867 85.4439 23.2882 85.3171 23.2882H82.4515C82.0288 23.2882 81.6822 22.9416 81.6822 22.5189V10.2958C81.6822 9.70406 81.2089 9.23069 80.6172 9.23069C80.4819 9.23069 80.3636 9.1208 80.372 8.97709C80.372 8.84184 80.4904 8.73195 80.6256 8.73195H83.618C84.5732 8.74041 85.0719 9.33212 85.2748 9.65334C85.3424 9.76323 85.4777 9.78859 85.5876 9.72942C86.1032 9.42511 87.5318 8.68969 89.4422 8.7066C89.4422 8.7066 90.558 8.69814 91.3864 8.95174C92.2993 9.21378 93.1192 9.70406 93.7617 10.3719C93.9307 10.5494 94.2182 10.5578 94.4041 10.3972C94.6577 10.1774 94.9536 9.9492 95.2832 9.72942C95.782 9.39975 97.2274 8.68969 99.1378 8.7066C99.1378 8.7066 100.254 8.69814 101.082 8.95174C103.263 9.56881 104.877 11.5384 104.954 13.8968V23.0346C104.954 23.1614 104.852 23.2628 104.725 23.2628H101.851C101.429 23.2628 101.082 22.9162 101.082 22.4936V12.9839C101.031 11.42 99.7465 10.1605 98.1742 10.1605C96.6019 10.1605 95.317 11.4116 95.2663 12.967V23.0515Z" fill="#D19E5C"/>
<path d="M66.1536 19.1631C66.1536 21.437 68.326 23.2798 71.0141 23.2798C72.2144 23.2798 73.3133 22.9163 74.1586 22.3161C74.2601 22.2485 74.3953 22.3161 74.4038 22.4429V22.519C74.4038 22.9417 74.7504 23.2883 75.173 23.2883H78.0386C78.1739 23.2883 78.2753 23.1784 78.2753 23.0516V13.9307C78.1992 11.5723 76.5847 9.60271 74.4038 8.98563C73.5754 8.73204 72.4596 8.74049 72.4596 8.74049C71.031 8.72359 69.8645 9.13779 69.1544 9.47591C69.146 9.47591 69.146 9.48436 69.1375 9.48436C68.9515 9.5858 68.774 9.69569 68.605 9.81403C68.4359 9.93238 68.2753 10.0761 68.1316 10.2113C67.5145 10.8115 67.1426 11.5723 67.1341 12.4007V12.7642C67.1341 12.9586 67.2947 13.1276 67.4892 13.1276H68.5712C69.1037 13.1276 69.5348 12.6965 69.5348 12.164V12.1386C69.5348 11.082 70.3886 10.2113 71.4452 10.2029C71.4537 10.2029 71.4706 10.2029 71.479 10.2029C73.0597 10.2029 74.3446 11.4539 74.3953 13.0262V14.8014C74.3953 14.9451 74.2854 15.0634 74.1417 15.0634H71.0141C66.0352 15.2578 66.1536 19.1631 66.1536 19.1631ZM73.829 21.344C73.3556 21.6568 72.8146 21.8343 72.2482 21.8343C72.2398 21.8343 72.2229 21.8343 72.2144 21.8343C71.479 21.8259 70.7859 21.4962 70.304 20.9383C69.6954 20.2367 69.4503 19.3322 69.5771 18.47C69.763 17.2105 70.8535 16.2722 72.1299 16.2722H74.1417C74.2854 16.2722 74.3953 16.3821 74.3953 16.5173V20.2959C74.4038 20.7185 74.1925 21.1158 73.829 21.344C73.8374 21.344 73.8374 21.344 73.829 21.344Z" fill="#D19E5C"/>
<path d="M107.878 19.1631C107.878 21.437 110.051 23.2798 112.739 23.2798C113.939 23.2798 115.038 22.9163 115.883 22.3161C115.985 22.2485 116.12 22.3161 116.128 22.4429V22.519C116.128 22.9417 116.475 23.2883 116.898 23.2883H119.763C119.899 23.2883 120 23.1784 120 23.0516V13.9307C119.924 11.5723 118.309 9.60271 116.128 8.98563C115.3 8.73204 114.184 8.74049 114.184 8.74049C112.756 8.72359 111.589 9.13779 110.879 9.47591C110.871 9.47591 110.871 9.48436 110.862 9.48436C110.676 9.5858 110.499 9.69569 110.33 9.81403C110.161 9.93238 110 10.0761 109.856 10.2113C109.239 10.8115 108.867 11.5723 108.859 12.4007V12.7642C108.859 12.9586 109.019 13.1276 109.214 13.1276H110.296C110.828 13.1276 111.259 12.6965 111.259 12.164V12.1386C111.259 11.082 112.113 10.2113 113.17 10.2029C113.178 10.2029 113.195 10.2029 113.204 10.2029C114.784 10.2029 116.069 11.4539 116.12 13.0262V14.8014C116.12 14.9451 116.01 15.0634 115.866 15.0634H112.739C107.76 15.2578 107.878 19.1631 107.878 19.1631ZM115.562 21.344C115.089 21.6568 114.548 21.8343 113.981 21.8343C113.973 21.8343 113.956 21.8343 113.948 21.8343C113.212 21.8259 112.519 21.4962 112.037 20.9383C111.428 20.2367 111.183 19.3322 111.31 18.47C111.496 17.2105 112.587 16.2722 113.863 16.2722H115.875C116.019 16.2722 116.128 16.3821 116.128 16.5173V20.2959C116.128 20.7185 115.917 21.1158 115.562 21.344Z" fill="#D19E5C"/>
<path d="M55.9174 22.9249C53.0772 21.9105 51.04 19.2224 51.04 16.0018C51.04 12.7558 53.111 10.0255 55.9851 9.01955C56.6444 8.79977 57.3037 8.70679 58.0307 8.70679C59.3578 8.70679 60.6004 9.09563 61.6571 9.77188C62.5615 10.3551 63.111 11.3611 63.111 12.4431V12.7135C63.111 12.9164 62.9504 13.077 62.7475 13.077H62.0882C61.581 13.077 61.1583 12.6628 61.1583 12.1472C61.0992 10.3551 58.8845 10.5073 58.8845 10.5073C57.3629 10.5496 56.0358 11.5386 55.554 12.9756C55.554 12.9756 55.0891 14.252 55.0891 15.9933C55.0891 15.9933 55.0637 17.4473 55.5032 18.842C55.5032 18.842 56.2387 21.4202 59.0282 21.4456C60.592 21.4456 61.9529 20.8877 62.5954 20.0762C62.6799 19.9409 62.8405 19.848 63.018 19.848C63.2801 19.848 63.4998 20.0677 63.4998 20.3298C63.4998 20.4481 63.4576 20.5665 63.3815 20.651C62.1051 22.2402 60.1947 23.2545 58.0561 23.2545C58.0561 23.2799 57.0163 23.3053 55.9174 22.9249Z" fill="#D19E5C"/>
</svg>
