<svg width="110" height="94" viewBox="0 0 110 94" fill="none" xmlns="http://www.w3.org/2000/svg">
<path d="M102.059 93.6488H26.2551C21.9402 93.6488 18.4297 90.1383 18.4297 85.8234V52.5471C18.4297 51.5232 19.2342 50.7187 20.2581 50.7187C21.2819 50.7187 22.0864 51.5232 22.0864 52.5471V85.8234C22.0864 88.1271 23.9514 89.9921 26.2551 89.9921H102.059C104.363 89.9921 106.228 88.1271 106.228 85.8234V24.6462C106.228 22.3425 104.363 20.4775 102.059 20.4775H51.8522C50.8284 20.4775 50.0239 19.6731 50.0239 18.6492C50.0239 17.6253 50.8284 16.8208 51.8522 16.8208H102.059C106.374 16.8208 109.885 20.3313 109.885 24.6462V85.8234C109.885 90.1383 106.374 93.6488 102.059 93.6488Z" fill="#7F7F7F"/>
<path d="M89.736 58.0324C88.7121 58.0324 87.9076 57.2279 87.9076 56.204V45.1606H76.8643C75.8404 45.1606 75.0359 44.3562 75.0359 43.3323C75.0359 42.3084 75.8404 41.5039 76.8643 41.5039H89.736C90.7599 41.5039 91.5643 42.3084 91.5643 43.3323V56.204C91.5643 57.1913 90.7599 58.0324 89.736 58.0324Z" fill="#D19E5C"/>
<path d="M46.4768 64.651C46.0014 64.651 45.5261 64.4682 45.1969 64.1025C44.4656 63.3711 44.4656 62.2375 45.1969 61.5062L54.0462 52.6569C56.3134 50.3897 60.0067 50.3897 62.2739 52.6569L68.5269 58.9099C68.9292 59.3122 69.4777 59.5316 70.0628 59.5316C70.6478 59.5316 71.1598 59.3122 71.5986 58.9099L88.4927 42.0158C89.224 41.2844 90.3576 41.2844 91.089 42.0158C91.8203 42.7471 91.8203 43.8807 91.089 44.6121L74.1949 61.5062C73.0978 62.6032 71.6351 63.2249 70.0993 63.2249C68.5635 63.2249 67.1008 62.6032 66.0038 61.5062L59.7508 55.2532C58.9097 54.4121 57.5567 54.4121 56.7157 55.2532L47.8664 64.1025C47.4276 64.4682 46.9522 64.651 46.4768 64.651Z" fill="#D19E5C"/>
<path opacity="0.6" d="M38.5417 72.586C38.0664 72.586 37.591 72.4032 37.2619 72.0375C36.5305 71.3062 36.5305 70.1726 37.2619 69.4412L40.1507 66.5524C40.8821 65.8211 42.0156 65.8211 42.747 66.5524C43.4783 67.2838 43.4783 68.4174 42.747 69.1487L39.8582 72.0375C39.4925 72.4032 39.0171 72.586 38.5417 72.586Z" fill="#7F7F7F"/>
<path d="M21.5382 43.0763C9.65378 43.0763 0 33.4226 0 21.5382C0 9.65378 9.65378 0 21.5382 0C33.4226 0 43.0763 9.65378 43.0763 21.5382C43.0763 33.4226 33.4226 43.0763 21.5382 43.0763ZM21.5382 3.65674C11.665 3.65674 3.65674 11.665 3.65674 21.5382C3.65674 31.4114 11.665 39.4196 21.5382 39.4196C31.4114 39.4196 39.4196 31.4114 39.4196 21.5382C39.4196 11.665 31.4114 3.65674 21.5382 3.65674Z" fill="#D19E5C"/>
<path d="M20.5509 34.7392C20.3315 34.7392 20.0389 34.4101 20.0389 34.1907V31.4481C18.5762 31.3384 16.6382 30.8265 15.5411 30.022C15.3949 29.9123 15.3949 29.766 15.4314 29.5832L16.1994 27.4989C16.2359 27.3892 16.3456 27.316 16.4553 27.2795C16.4919 27.2795 16.5285 27.2429 16.565 27.2429C16.6382 27.2429 16.7113 27.2795 16.7844 27.316C17.9912 28.1205 19.527 28.5959 21.0263 28.5959C22.9643 28.5959 24.3173 27.4989 24.3173 25.9265C24.3173 24.5003 23.3666 23.513 21.0628 22.5988C18.2837 21.5384 15.724 20.1123 15.724 16.9675C15.724 14.298 17.4792 12.2868 20.4046 11.7018V8.88607C20.4046 8.66667 20.5509 8.44727 20.7703 8.44727H22.6718C22.8912 8.44727 22.9643 8.70324 22.9643 8.88607V11.5189C24.427 11.6286 25.7069 11.9943 26.8405 12.6159C26.9867 12.6891 27.0964 12.9085 27.0233 13.0548L26.2554 15.1025C26.2188 15.2122 26.1457 15.2854 26.036 15.3219C25.9994 15.3219 25.9628 15.3585 25.9263 15.3585C25.8531 15.3585 25.8166 15.3585 25.7434 15.3219C25.2315 15.0294 23.9882 14.3346 22.0501 14.3346C19.8927 14.3346 19.1613 15.5779 19.1613 16.6384C19.1613 17.9548 19.9658 18.6496 22.7449 19.8197C26.2188 21.2093 27.7912 23.0011 27.7912 25.7436C27.7912 28.0474 26.2554 30.6071 22.9643 31.3019V34.1907C22.9643 34.4101 22.7084 34.7392 22.4889 34.7392H20.5509Z" fill="#D19E5C"/>
</svg>
