<svg width="104" height="85" viewBox="0 0 104 85" fill="none" xmlns="http://www.w3.org/2000/svg">
<path d="M59.0197 52.4003C62.8593 49.9137 65.419 45.5988 65.419 40.6988C65.419 33.0196 59.166 26.7666 51.4868 26.7666C43.8077 26.7666 37.5547 33.0196 37.5547 40.6988C37.5547 45.5988 40.1144 49.9137 43.954 52.4003C36.8233 55.3623 31.7405 62.3832 31.7405 70.5377V82.2758C31.7405 83.2997 32.545 84.1042 33.5688 84.1042H69.2586C70.2825 84.1042 71.1601 83.2997 71.1601 82.2758L71.2698 70.4646C71.2332 62.3466 66.1504 55.3623 59.0197 52.4003ZM41.1749 40.6988C41.1749 35.0308 45.7823 30.4233 51.4503 30.4233C57.1182 30.4233 61.7257 35.0308 61.7257 40.6988C61.7257 46.0376 57.6302 50.4257 52.401 50.9376C52.0719 50.9376 51.7428 50.9011 51.4137 50.9011C51.0846 50.9011 50.7555 50.9011 50.4264 50.9376C45.2704 50.4257 41.1749 46.0376 41.1749 40.6988ZM67.3936 80.484H35.3972V70.5743C35.3972 62.0907 42.089 55.1063 50.463 54.5944C50.7921 54.6309 51.1577 54.6309 51.4868 54.6309C51.816 54.6309 52.1085 54.6309 52.4376 54.5944C60.8115 55.1063 67.4302 62.0541 67.4302 70.5012L67.3936 80.484Z" fill="#D19E5C"/>
<path d="M24.9024 65.9664C28.2666 63.6626 30.4972 59.823 30.4972 55.435C30.4972 48.414 24.7927 42.7461 17.8083 42.7461C10.8239 42.7461 5.11943 48.4506 5.11943 55.435C5.11943 59.823 7.35004 63.6626 10.7142 65.9664C4.38808 68.7455 0 74.9985 0 82.312C0 83.3359 0.804482 84.1403 1.82837 84.1403H33.7517C34.7756 84.1403 35.58 83.3359 35.58 82.312C35.58 74.9985 31.1554 68.7455 24.9024 65.9664ZM8.7396 55.4715C8.7396 50.4984 12.7986 46.4394 17.7717 46.4394C22.7449 46.4394 26.8039 50.4984 26.8039 55.4715C26.8039 60.3716 22.8912 64.3574 18.0277 64.5037C17.9546 64.5037 17.8449 64.5037 17.7717 64.5037C17.6986 64.5037 17.5889 64.5037 17.5158 64.5037C12.6523 64.3574 8.7396 60.3716 8.7396 55.4715ZM3.76644 80.4836C4.64405 73.6455 10.4583 68.3067 17.4792 68.1604C17.5523 68.1604 17.662 68.1604 17.7352 68.1604C17.8449 68.1604 17.918 68.1604 18.0277 68.1604C25.0852 68.3067 30.8628 73.6089 31.777 80.4836H3.76644Z" fill="#D19E5C"/>
<path d="M92.296 65.9664C95.6602 63.6626 97.8908 59.823 97.8908 55.435C97.8908 48.414 92.1863 42.7461 85.2019 42.7461C78.2175 42.7461 72.513 48.4506 72.513 55.435C72.513 59.823 74.7437 63.6626 78.1078 65.9664C71.8183 68.7089 67.4302 74.9985 67.4302 82.2754C67.4302 83.2993 68.2347 84.1038 69.2585 84.1038H101.182C102.206 84.1038 103.01 83.2993 103.01 82.2754C102.974 74.9985 98.549 68.7455 92.296 65.9664ZM76.1332 55.4715C76.1332 50.4984 80.1922 46.4394 85.1653 46.4394C90.1385 46.4394 94.1975 50.4984 94.1975 55.4715C94.1975 60.3716 90.2848 64.3574 85.4213 64.5037C85.3482 64.5037 85.2385 64.5037 85.1653 64.5037C85.0922 64.5037 84.9825 64.5037 84.9094 64.5037C80.0459 64.3574 76.1332 60.3716 76.1332 55.4715ZM71.1601 80.4836C72.0377 73.6455 77.8519 68.3067 84.8728 68.1604C84.9459 68.1604 85.0556 68.1604 85.1288 68.1604C85.2385 68.1604 85.3116 68.1604 85.4213 68.1604C92.4788 68.3067 98.2565 73.6089 99.1706 80.4836H71.1601Z" fill="#D19E5C"/>
<path d="M88.6028 38.3226C87.5789 38.3226 86.7745 37.5181 86.7745 36.4942V3.65674H16.1995V36.4942C16.1995 37.5181 15.395 38.3226 14.3711 38.3226C13.3472 38.3226 12.5427 37.5181 12.5427 36.4942V1.82837C12.5427 0.804482 13.3472 0 14.3711 0H88.6028C89.6267 0 90.4312 0.804482 90.4312 1.82837V36.4942C90.4312 37.5181 89.5901 38.3226 88.6028 38.3226Z" fill="#7F7F7F"/>
<path opacity="0.6" d="M19.3076 17.3328C19.3076 18.3566 20.1121 19.1611 21.136 19.1611H37.4085C38.4323 19.1611 39.2368 18.3566 39.2368 17.3328C39.2368 16.3089 38.4323 15.5044 37.4085 15.5044H21.136C20.1487 15.5044 19.3076 16.3089 19.3076 17.3328Z" fill="#7F7F7F"/>
<path opacity="0.6" d="M75.2922 20.9534C75.2922 19.9295 74.4878 19.125 73.4639 19.125H61.1772C60.1534 19.125 59.3489 19.9295 59.3489 20.9534C59.3489 21.9773 60.1534 22.7817 61.1772 22.7817H73.4639C74.4512 22.7817 75.2922 21.9773 75.2922 20.9534Z" fill="#D19E5C"/>
<path opacity="0.6" d="M82.1305 28.4856C82.1305 27.4617 81.326 26.6572 80.3022 26.6572H77.0842C76.0603 26.6572 75.2559 27.4617 75.2559 28.4856C75.2559 29.5095 76.0603 30.314 77.0842 30.314H80.3022C81.326 30.314 82.1305 29.5095 82.1305 28.4856Z" fill="#7F7F7F"/>
</svg>
