<svg width="92" height="77" viewBox="0 0 92 77" fill="none" xmlns="http://www.w3.org/2000/svg">
<path opacity="0.6" d="M42.8569 21.3552C42.8569 20.3313 42.0525 19.5269 41.0286 19.5269H36.0554C35.0315 19.5269 34.2271 20.3313 34.2271 21.3552C34.2271 22.3791 35.0315 23.1836 36.0554 23.1836H41.0286C42.0159 23.1836 42.8569 22.3791 42.8569 21.3552Z" fill="#7F7F7F"/>
<path opacity="0.6" d="M89.6268 44.7952C89.6268 43.7713 88.8223 42.9668 87.7984 42.9668H81.3625C80.3387 42.9668 79.5342 43.7713 79.5342 44.7952C79.5342 45.8191 80.3387 46.6235 81.3625 46.6235H87.7984C88.8223 46.6235 89.6268 45.8191 89.6268 44.7952Z" fill="#D19E5C"/>
<path opacity="0.6" d="M13.4932 13.0549C13.4932 14.0788 14.2976 14.8833 15.3215 14.8833H36.7134C37.7373 14.8833 38.5418 14.0788 38.5418 13.0549C38.5418 12.031 37.7373 11.2266 36.7134 11.2266H15.3215C14.2976 11.2266 13.4932 12.031 13.4932 13.0549Z" fill="#D19E5C"/>
<path opacity="0.6" d="M0.950684 29.6926C0.950684 30.7165 1.75517 31.521 2.77905 31.521H20.5142C21.5381 31.521 22.3426 30.7165 22.3426 29.6926C22.3426 28.6687 21.5381 27.8643 20.5142 27.8643H2.77905C1.79173 27.8643 0.950684 28.7053 0.950684 29.6926Z" fill="#7F7F7F"/>
<path d="M83.6295 76.828H7.82541C3.51047 76.828 0 73.3175 0 69.0026V7.82541C0 3.51047 3.51047 0 7.82541 0H83.6295C87.9445 0 91.455 3.51047 91.455 7.82541V69.0026C91.455 73.3175 87.9445 76.828 83.6295 76.828ZM7.82541 3.65674C5.52167 3.65674 3.65674 5.52167 3.65674 7.82541V69.0026C3.65674 71.3063 5.52167 73.1713 7.82541 73.1713H83.6295C85.9333 73.1713 87.7982 71.3063 87.7982 69.0026V7.82541C87.7982 5.52167 85.9333 3.65674 83.6295 3.65674H7.82541Z" fill="#7F7F7F"/>
<path d="M75.9867 57.8499H69.0389V27.499C69.0389 25.2684 67.3203 23.4766 65.0896 23.4766H59.8971C57.6665 23.4766 55.8747 25.2318 55.8747 27.499V57.8499H52.5836V39.6393C52.5836 37.4087 50.609 35.5438 48.3418 35.5438H43.1492C40.9186 35.5438 39.0537 37.4087 39.0537 39.6393V57.8499H35.7626V48.8909C35.7626 46.6603 34.0805 44.6856 31.8499 44.6856H26.6574C24.4268 44.6856 22.5984 46.6237 22.5984 48.8909V57.8499H15.2849C14.261 57.8499 13.4565 58.6544 13.4565 59.6782C13.4565 60.7021 14.261 61.5066 15.2849 61.5066H24.0245C24.1342 61.5432 24.2805 61.5066 24.3902 61.5066H34.0805C34.1902 61.5066 34.3365 61.5432 34.4462 61.5066H40.5164C40.6261 61.5432 40.7724 61.5066 40.8821 61.5066H50.5724C50.6821 61.5066 50.8284 61.5432 50.9381 61.5066H57.2277C57.3374 61.5432 57.4836 61.5066 57.5933 61.5066H67.2837C67.3934 61.5066 67.5397 61.5432 67.6494 61.5066H75.9501C76.974 61.5066 77.7785 60.7021 77.7785 59.6782C77.7785 58.6544 77.0106 57.8499 75.9867 57.8499ZM59.5314 27.4624C59.5314 27.243 59.6411 27.0967 59.8971 27.0967H65.0896C65.3091 27.0967 65.3822 27.2064 65.3822 27.4624V57.8133H59.5314V27.4624ZM42.7104 39.6393C42.7104 39.4199 42.9298 39.2005 43.1492 39.2005H48.3418C48.5612 39.2005 48.9269 39.4199 48.9269 39.6393V57.8499H42.7104V39.6393ZM26.2551 48.8543C26.2551 48.6349 26.4014 48.3058 26.6574 48.3058H31.8499C32.0693 48.3058 32.1059 48.5983 32.1059 48.8543V57.8133H26.2551V48.8543Z" fill="#D19E5C"/>
</svg>
