<svg width="41" height="51" viewBox="0 0 41 51" fill="none" xmlns="http://www.w3.org/2000/svg">
<path d="M20.5 50.9949C15.3079 50.9949 10.0933 46.6585 5.7964 38.8027C2.32751 32.4343 0 24.5576 0 19.1947C0 8.61555 9.19814 0.00561523 20.5 0.00561523C31.8019 0.00561523 41 8.61555 41 19.1947C41 24.5576 38.6725 32.4343 35.2036 38.8027C30.9067 46.6794 25.6921 50.9949 20.5 50.9949ZM20.5 2.10049C10.429 2.10049 2.23799 9.76773 2.23799 19.1947C2.23799 24.2643 4.47598 31.7639 7.78821 37.86C11.6152 44.8778 16.2478 48.9209 20.5 48.9209C24.7522 48.9209 29.3848 44.8988 33.2118 37.86C36.524 31.7639 38.762 24.2643 38.762 19.1947C38.762 9.76773 30.571 2.10049 20.5 2.10049Z" fill="#7F7F7F"/>
<path d="M20.5003 25.9402C16.5167 25.9402 13.2939 22.9026 13.2939 19.1947C13.2939 15.4868 16.539 12.4492 20.5003 12.4492C24.4615 12.4492 27.7066 15.4868 27.7066 19.1947C27.7066 22.9026 24.4839 25.9402 20.5003 25.9402ZM20.5003 14.5441C17.7475 14.5441 15.5319 16.639 15.5319 19.1947C15.5319 21.7714 17.7699 23.8453 20.5003 23.8453C23.2306 23.8453 25.4686 21.7505 25.4686 19.1947C25.4686 16.618 23.2306 14.5441 20.5003 14.5441Z" fill="#7F7F7F"/>
</svg>
