<svg width="33" height="52" viewBox="0 0 33 52" fill="none" xmlns="http://www.w3.org/2000/svg">
<path d="M26.3772 51.9219H6.62276C2.98138 51.9219 0 49.195 0 45.8178V6.10972C0 2.73253 2.95862 0.00561523 6.62276 0.00561523H26.4C30.0414 0.00561523 33 2.73253 33 6.10972V45.8388C33 49.195 30.0414 51.9219 26.3772 51.9219ZM6.62276 2.10324C4.21034 2.10324 2.27586 3.88623 2.27586 6.10972V45.8388C2.27586 48.0413 4.21034 49.8453 6.62276 49.8453H26.4C28.7897 49.8453 30.7469 48.0623 30.7469 45.8388V6.10972C30.7469 3.90721 28.8124 2.10324 26.4 2.10324H6.62276Z" fill="#7F7F7F"/>
<path d="M16.5911 47.601C17.6846 47.601 18.5711 46.784 18.5711 45.7761C18.5711 44.7682 17.6846 43.9512 16.5911 43.9512C15.4976 43.9512 14.6111 44.7682 14.6111 45.7761C14.6111 46.784 15.4976 47.601 16.5911 47.601Z" fill="#7F7F7F"/>
<path d="M20.0732 6.19358H13.0181C12.3808 6.19358 11.8801 5.7321 11.8801 5.14476C11.8801 4.55743 12.3808 4.09595 13.0181 4.09595H20.0732C20.7105 4.09595 21.2112 4.55743 21.2112 5.14476C21.2112 5.7321 20.6877 6.19358 20.0732 6.19358Z" fill="#7F7F7F"/>
</svg>
