<svg width="72" height="80" viewBox="0 0 72 80" fill="none" xmlns="http://www.w3.org/2000/svg">
<path d="M53.8319 7.49666C53.5778 7.49666 53.366 7.45431 53.1119 7.3696C49.1306 5.92956 42.8622 4.2354 35.7467 4.2354C28.6736 4.2354 22.4476 5.92956 18.4239 7.32724C17.3227 7.70843 16.0945 7.15783 15.7133 6.01427C15.3321 4.87071 15.8827 3.6848 17.0263 3.30361C21.3464 1.82122 28.0807 0 35.7467 0C43.4552 0 50.2318 1.82122 54.5519 3.34597C55.6531 3.72715 56.2461 4.95542 55.8225 6.05662C55.5261 6.94606 54.7213 7.49666 53.8319 7.49666Z" fill="#D19E5C"/>
<path d="M53.8319 7.49666C53.5778 7.49666 53.366 7.45431 53.1119 7.3696C49.1306 5.92956 42.8622 4.2354 35.7467 4.2354C28.6736 4.2354 22.4476 5.92956 18.4239 7.32724C17.3227 7.70843 16.0945 7.15783 15.7133 6.01427C15.3321 4.87071 15.8827 3.6848 17.0263 3.30361C21.3464 1.82122 28.0807 0 35.7467 0C43.4552 0 50.2318 1.82122 54.5519 3.34597C55.6531 3.72715 56.2461 4.95542 55.8225 6.05662C55.5261 6.94606 54.7213 7.49666 53.8319 7.49666Z" fill="#D19E5C"/>
<path d="M35.8318 79.0745C28.1234 79.0745 21.3467 77.2532 17.0266 75.7285C15.9254 75.3473 15.3325 74.119 15.756 73.0178C16.1372 71.9166 17.3655 71.3237 18.4667 71.7472C22.4479 73.1873 28.7163 74.8814 35.8318 74.8814C37.7801 74.8814 39.7707 74.7544 41.7614 74.5002C42.9049 74.3732 43.9638 75.1779 44.1332 76.3215C44.2603 77.465 43.4555 78.5239 42.312 78.6933C40.1096 78.905 37.9495 79.0745 35.8318 79.0745Z" fill="#D19E5C"/>
<path d="M49.9781 77.0844C49.0463 77.0844 48.1992 76.4491 47.9451 75.5173C47.6486 74.3737 48.2839 73.2301 49.4275 72.8913C50.6981 72.5525 51.9264 72.1289 53.1547 71.7054C54.2559 71.3242 55.4841 71.8748 55.8653 72.976C56.2465 74.0772 55.6959 75.3055 54.5947 75.6867C53.2817 76.1526 51.9264 76.5761 50.5711 76.9573C50.3169 77.042 50.1475 77.0844 49.9781 77.0844Z" fill="#D19E5C"/>
<path d="M35.7044 63.3617C24.65 63.3617 15.4169 57.305 10.885 53.705C4.48953 48.6225 0 42.5658 0 39.0505C0 35.5351 4.48953 29.4785 10.885 24.396C15.4169 20.7959 24.65 14.7393 35.7044 14.7393C46.7588 14.7393 55.992 20.7959 60.5239 24.396C66.9193 29.5208 71.4089 35.5351 71.4089 39.0505C71.4089 42.5658 66.9193 48.5801 60.5239 53.705C55.992 57.3474 46.7588 63.3617 35.7044 63.3617ZM35.7044 18.9747C25.9207 18.9747 17.6193 24.4383 13.5109 27.6996C7.32724 32.6127 4.2354 37.6528 4.2354 39.0505C4.2354 40.4481 7.32724 45.4459 13.5109 50.4013C17.6193 53.6626 25.9207 59.1263 35.7044 59.1263C45.4882 59.1263 53.7896 53.6626 57.8979 50.4013C64.0816 45.4459 67.1735 40.4481 67.1735 39.0505C67.1735 37.6528 64.0816 32.655 57.8979 27.6996C53.7896 24.4383 45.4882 18.9747 35.7044 18.9747Z" fill="#D19E5C"/>
<path opacity="0.6" d="M35.7889 24.6079C27.8264 24.6079 21.3462 31.0881 21.3462 39.0506C21.3462 47.0132 27.8264 53.4934 35.7889 53.4934C43.7515 53.4934 50.2316 47.0132 50.2316 39.0506C50.2316 31.0881 43.7515 24.6079 35.7889 24.6079ZM35.7889 44.6414C32.6971 44.6414 30.1982 42.1425 30.1982 39.0506C30.1982 35.9588 32.6971 33.4599 35.7889 33.4599C38.8808 33.4599 41.3796 35.9588 41.3796 39.0506C41.3796 42.1425 38.8808 44.6414 35.7889 44.6414Z" fill="#D19E5C"/>
</svg>
