<svg width="171" height="93" viewBox="0 0 171 93" fill="none" xmlns="http://www.w3.org/2000/svg">
<path d="M91.4754 88.6485C91.101 88.6145 90.7267 88.5125 90.3523 88.3766C90.012 88.2406 89.6717 88.0367 89.3654 87.8327C87.7318 86.6092 87.2213 84.3999 88.1402 82.5645L88.4805 81.8507C88.8208 81.137 88.6507 80.2533 88.0041 79.7774C87.3915 79.2676 86.4726 79.3016 85.86 79.8114L82.5589 82.5305C80.8913 83.8901 78.5431 83.958 76.8415 82.6325C75.7865 81.8167 75.1059 80.5932 75.0378 79.2336C74.9697 77.8741 75.4802 76.5825 76.4331 75.6648C76.5693 75.5288 76.6373 75.3929 76.7394 75.2569L78.6792 73.6594C79.3939 73.0476 79.496 71.994 78.9175 71.2802C78.3049 70.5665 77.2499 70.4645 76.5352 71.0423L68.2314 77.908C66.5638 79.2676 64.2156 79.3356 62.5139 78.01C61.4589 77.1943 60.7783 75.9707 60.7102 74.6111C60.6422 73.2516 61.1527 71.96 62.1056 71.0423C62.1736 70.9743 62.2417 70.8724 62.3098 70.8044L67.1083 66.8617C67.823 66.2499 67.9251 65.1962 67.3465 64.4825C66.7339 63.7687 65.6789 63.6668 64.9643 64.2446L56.6604 71.1103C54.9928 72.4698 52.6446 72.5378 50.943 71.2123C49.888 70.3965 49.2073 69.1729 49.1393 67.8134C49.0712 66.4878 49.5817 65.1623 50.5346 64.2446L69.1162 46.3665C69.2183 46.2645 69.3204 46.1286 69.3885 46.0266C71.5325 46.8423 73.8467 47.3182 76.263 47.4201C80.8913 47.6241 85.5197 46.3665 89.3654 43.8173L96.8865 50.1732C99.8133 52.8243 103.319 54.1499 106.722 54.1499C109.342 54.1499 111.861 53.3342 113.971 51.7027C116.183 50.0033 119.45 45.2449 115.979 39.2968C115.945 39.2628 115.945 39.2288 115.91 39.1949L99.4049 14.723L99.3708 14.689C94.5042 7.9252 87.6978 4.18644 79.6662 3.84655C79.6321 3.84655 79.5981 3.84655 79.5641 3.84655L71.3623 3.91453H71.3283C62.3098 4.18644 54.7546 6.93953 48.2545 12.3098L45.9062 14.2471C44.5449 15.3687 43.0135 16.1505 41.3799 16.6263L42.2988 12.7856C43.0475 9.69262 41.2098 6.56565 38.1469 5.68195L19.4972 0.243745C17.9317 -0.198108 16.2642 0.00582408 14.8348 0.821554C13.4055 1.63728 12.4185 2.99683 12.0442 4.59431L0.166932 54.5578C-0.581777 57.6507 1.25596 60.7777 4.31886 61.6614L22.9685 67.0316C23.513 67.2016 24.0916 67.2696 24.6361 67.2696C25.6911 67.2696 26.7121 66.9977 27.6309 66.4538C29.0603 65.6381 30.0472 64.2785 30.4216 62.6811L31.2724 59.0443C36.7175 59.3842 42.0266 60.9137 46.7911 63.5308C46.0083 64.8903 45.634 66.4198 45.702 68.0173C45.8382 70.3625 46.9953 72.5038 48.833 73.8974C50.2623 74.985 51.964 75.5288 53.6656 75.5288C54.8907 75.5288 56.1499 75.2229 57.273 74.6451C57.273 74.6791 57.273 74.7471 57.273 74.7811C57.4091 77.1263 58.5662 79.2676 60.4039 80.6611C61.8333 81.7488 63.5349 82.2926 65.2365 82.2926C67.0402 82.2926 68.8439 81.6808 70.3414 80.4572L71.6346 79.4035C71.7707 81.7148 72.9278 83.8561 74.7655 85.2496C77.5902 87.3909 81.4699 87.4249 84.2946 85.3516C84.5668 87.3229 85.5878 89.1923 87.2554 90.4499C87.7999 90.8577 88.4125 91.1976 89.025 91.4696C89.6717 91.7415 90.3523 91.9114 91.0329 91.9794C91.101 91.9794 91.1691 91.9794 91.2371 91.9794C92.0879 91.9794 92.8367 91.3336 92.9388 90.4839C93.1089 89.6002 92.4283 88.7504 91.4754 88.6485ZM27.1204 61.8993C26.9503 62.5791 26.5419 63.1569 25.8953 63.5308C25.2827 63.9047 24.568 63.9727 23.8874 63.7687L5.23773 58.3985C3.91048 58.0246 3.12773 56.6651 3.43402 55.3395L15.3453 5.37605C15.5155 4.69627 15.9238 4.11846 16.5705 3.74459C16.9788 3.50667 17.4213 3.4047 17.8637 3.4047C18.1019 3.4047 18.3401 3.43869 18.5784 3.50667L37.228 8.87689C38.5553 9.25076 39.338 10.6103 39.0317 11.9359L27.1204 61.8993ZM40.5291 20.2971C43.3198 19.8213 45.9062 18.6317 48.1183 16.8303L50.4665 14.8929C56.3881 10.0325 63.2627 7.55133 71.4644 7.27942L79.5981 7.21144C86.6087 7.51734 92.3262 10.6783 96.6483 16.6263L113.086 41.0302C115.774 45.7207 112.337 48.6777 111.929 48.9836C107.811 52.2125 102.434 50.5131 99.2007 47.5901L99.1666 47.5561L90.6245 40.3505C90.012 39.8406 89.1612 39.8066 88.5146 40.2825C85.0433 42.8656 80.7892 44.1572 76.4672 43.9873C68.1633 43.6474 61.1867 38.0052 59.0427 30.0179C58.8044 29.1002 57.8515 28.5564 56.9667 28.8283C56.0478 29.0662 55.5033 30.0179 55.7756 30.9016C57.341 36.8156 61.1867 41.642 66.2575 44.4971L49.2414 60.8797C44.0345 57.9227 38.2149 56.1213 32.2253 55.6794L40.5291 20.2971Z" fill="#D19E5C"/>
<path d="M170.09 54.5572L158.212 4.59377C157.838 2.9963 156.851 1.63675 155.422 0.821022C153.993 0.00529162 152.325 -0.23263 150.759 0.243213L132.11 5.61344C129.047 6.49714 127.209 9.62411 127.958 12.7171L128.707 15.844C127.073 15.946 125.405 15.7761 123.738 15.3342C121.662 14.7904 119.688 13.8387 117.816 12.4792C109.785 6.56512 105.599 6.42916 100.698 8.26456C99.8132 8.60444 99.3708 9.55613 99.7111 10.4398C100.051 11.3235 101.004 11.7654 101.889 11.4255C105.292 10.1679 108.321 9.69209 115.808 15.1983C118.02 16.8297 120.403 17.9853 122.887 18.5971C124.555 19.039 126.188 19.2429 127.822 19.2429C128.4 19.2429 128.945 19.2089 129.523 19.1749L138.27 55.9508C135.717 56.8005 133.641 57.5822 132.382 58.0581L130.442 55.4409C128.094 52.246 123.568 51.5662 120.369 53.9114C118.429 55.339 117.408 57.5482 117.442 59.7915C117.306 59.7575 117.136 59.7235 116.999 59.6895C115.094 59.4176 113.188 59.8595 111.656 61.0151C109.717 62.4426 108.696 64.6859 108.73 66.9291C108.696 66.9291 108.662 66.9291 108.662 66.9291C106.756 66.6232 104.85 67.0991 103.319 68.2547C101.753 69.4103 100.766 71.0758 100.46 72.9791C100.426 73.1491 100.426 73.319 100.392 73.489C100.222 73.455 100.051 73.421 99.8813 73.387C97.9755 73.0811 96.0697 73.5569 94.5382 74.7126C92.9728 75.8682 91.9858 77.5336 91.6795 79.437C91.3732 81.3404 91.8497 83.2437 93.0068 84.7732L96.7503 89.8376C98.1457 91.7409 100.358 92.7606 102.57 92.7606C104.067 92.7606 105.565 92.3187 106.824 91.367C108.389 90.2114 109.376 88.546 109.683 86.6426C110.023 86.7446 110.363 86.8126 110.704 86.8805C111.078 86.9485 111.452 86.9485 111.793 86.9485C113.324 86.9485 114.787 86.4727 116.047 85.555C117.612 84.3994 118.565 82.7339 118.871 80.9665C119.314 81.1364 119.79 81.2724 120.301 81.3404C120.675 81.4083 121.049 81.4083 121.39 81.4083C122.921 81.4083 124.384 80.9325 125.644 80.0148C127.209 78.8592 128.196 77.1937 128.502 75.2904C128.673 74.1687 128.57 73.0471 128.23 71.9935C128.298 71.9935 128.366 71.9935 128.4 71.9935C129.932 71.9935 131.395 71.5176 132.654 70.5999C134.22 69.4443 135.207 67.7789 135.513 65.8755C135.785 64.1421 135.411 62.4086 134.458 60.9471C135.615 60.5053 137.215 59.9614 139.052 59.3157L139.835 62.6805C140.209 64.278 141.196 65.6376 142.626 66.4533C143.545 66.9971 144.6 67.269 145.621 67.269C146.165 67.269 146.744 67.201 147.288 67.0311L165.938 61.6609C169.001 60.7772 170.804 57.6502 170.09 54.5572ZM106.245 86.1328C106.109 87.1524 105.565 88.0362 104.748 88.614C103.046 89.8716 100.664 89.4977 99.4389 87.7982L95.6953 82.7339C95.0828 81.9182 94.8445 80.8985 94.9807 79.9128C95.1168 78.8932 95.6613 78.0095 96.4781 77.4317C97.2949 76.8199 98.3158 76.5819 99.3027 76.7179C100.017 76.8199 100.698 77.1598 101.243 77.6356C101.379 77.8735 101.515 78.1114 101.685 78.3154L105.871 83.9915C105.905 84.0255 105.939 84.0935 105.973 84.1274C106.245 84.7732 106.347 85.453 106.245 86.1328ZM113.937 82.8019C113.12 83.4137 112.099 83.6516 111.112 83.5156C110.261 83.3797 109.478 82.9718 108.9 82.36C108.73 81.9862 108.491 81.6463 108.253 81.3064L104.51 76.2421C104.34 76.0381 104.169 75.8002 103.999 75.6303C103.693 74.9845 103.591 74.2367 103.727 73.523C103.863 72.5033 104.408 71.6196 105.224 71.0418C105.871 70.5659 106.654 70.294 107.47 70.294C107.675 70.294 107.845 70.294 108.049 70.328C109.07 70.464 109.955 71.0078 110.533 71.8235L114.719 77.4996C116.013 79.1991 115.638 81.5783 113.937 82.8019ZM125.065 74.7805C124.929 75.8002 124.384 76.6839 123.568 77.2617C122.751 77.8735 121.73 78.1114 120.743 77.9755C119.722 77.8395 118.837 77.2957 118.259 76.48L112.814 69.1044C112.201 68.2887 111.963 67.269 112.099 66.2834C112.235 65.2637 112.78 64.38 113.596 63.8022C114.243 63.3263 115.026 63.0544 115.842 63.0544C116.047 63.0544 116.217 63.0544 116.421 63.0884C117.442 63.2244 118.327 63.7682 118.905 64.5839L124.35 71.9595C124.963 72.7752 125.201 73.7949 125.065 74.7805ZM132.076 65.3657C131.94 66.3853 131.395 67.269 130.578 67.8468C129.762 68.4586 128.741 68.6966 127.754 68.5606C126.733 68.4246 125.848 67.8808 125.269 67.0651L121.526 62.0008C120.267 60.3013 120.641 57.9221 122.343 56.6985C123.023 56.1887 123.806 55.9508 124.589 55.9508C125.746 55.9508 126.903 56.4946 127.652 57.4803L131.395 62.5446C131.974 63.3603 132.246 64.346 132.076 65.3657ZM164.985 58.398L146.335 63.7682C145.655 63.9721 144.94 63.8701 144.327 63.5303C143.715 63.1564 143.272 62.5786 143.102 61.8988L131.259 11.9693C130.953 10.6438 131.735 9.28422 133.063 8.91034L151.712 3.54012C152.393 3.33619 153.108 3.43816 153.72 3.77804C154.333 4.15192 154.775 4.72973 154.945 5.4095L166.755 55.339C167.095 56.6645 166.312 58.0241 164.985 58.398Z" fill="#D19E5C"/>
<path opacity="0.6" d="M32.736 13.1249C31.8171 12.921 30.8982 13.4988 30.694 14.4165L26.5761 32.3286C26.372 33.2463 26.9505 34.164 27.8694 34.3679C28.7882 34.5718 29.7071 33.994 29.9113 33.0763L34.0292 15.1642C34.1994 14.2466 33.6548 13.3289 32.736 13.1249Z" fill="#D19E5C"/>
<path opacity="0.6" d="M143.238 38.4125C142.319 38.6164 141.741 39.5341 141.979 40.4518L144.225 49.9687C144.429 50.8864 145.348 51.4642 146.267 51.2263C147.186 51.0223 147.764 50.1046 147.526 49.1869L145.28 39.6701C145.076 38.7524 144.157 38.1746 143.238 38.4125Z" fill="#D19E5C"/>
<path opacity="0.6" d="M147.39 58.0239C148.33 58.0239 149.092 57.263 149.092 56.3244C149.092 55.3859 148.33 54.625 147.39 54.625C146.45 54.625 145.688 55.3859 145.688 56.3244C145.688 57.263 146.45 58.0239 147.39 58.0239Z" fill="#D19E5C"/>
</svg>
